<svg width="10" height="15" viewBox="0 0 10 15" fill="none" xmlns="http://www.w3.org/2000/svg">
<path d="M4.28571 3.3H5.71429V1.9H4.28571V3.3ZM5 7.5C4.09524 7.5 3.23214 7.31625 2.41071 6.94875C1.58929 6.58125 0.785714 6.17 0 5.715V4.7C0 4.315 0.139881 3.98542 0.419643 3.71125C0.699405 3.43708 1.03571 3.3 1.42857 3.3H2.85714V1.2C2.85714 1.00167 2.9256 0.835417 3.0625 0.70125C3.1994 0.567083 3.36905 0.5 3.57143 0.5H6.42857C6.63095 0.5 6.8006 0.567083 6.9375 0.70125C7.07441 0.835417 7.14286 1.00167 7.14286 1.2V3.3H8.57143C8.96429 3.3 9.3006 3.43708 9.58036 3.71125C9.86012 3.98542 10 4.315 10 4.7V5.715C9.21429 6.17 8.41072 6.58125 7.58929 6.94875C6.76786 7.31625 5.90476 7.5 5 7.5ZM1.42857 13.8C1.03571 13.8 0.699405 13.6629 0.419643 13.3888C0.139881 13.1146 0 12.785 0 12.4V7.29C0.666667 7.68667 1.35417 8.025 2.0625 8.305C2.77083 8.585 3.5119 8.77167 4.28571 8.865V8.9C4.28571 9.09833 4.35417 9.26458 4.49107 9.39875C4.62798 9.53292 4.79762 9.6 5 9.6C5.20238 9.6 5.37202 9.53292 5.50893 9.39875C5.64583 9.26458 5.71429 9.09833 5.71429 8.9V8.865C6.4881 8.77167 7.22917 8.585 7.9375 8.305C8.64583 8.025 9.33333 7.68667 10 7.29V12.4C10 12.785 9.86012 13.1146 9.58036 13.3888C9.3006 13.6629 8.96429 13.8 8.57143 13.8C8.57143 13.9983 8.50298 14.1646 8.36607 14.2987C8.22917 14.4329 8.05952 14.5 7.85714 14.5C7.66667 14.5 7.53274 14.4154 7.45536 14.2463C7.37798 14.0771 7.27381 13.9283 7.14286 13.8H2.85714C2.85714 13.9983 2.78869 14.1646 2.65179 14.2987C2.51488 14.4329 2.34524 14.5 2.14286 14.5C1.95238 14.5 1.81845 14.4154 1.74107 14.2463C1.66369 14.0771 1.55952 13.9283 1.42857 13.8Z" fill="#75FF8C"/>
</svg>
