<svg width="14" height="15" viewBox="0 0 14 15" fill="none" xmlns="http://www.w3.org/2000/svg">
<path d="M8.33 10.9475C8.52833 11.0292 8.71803 11.0322 8.8991 10.9566C9.0797 10.8805 9.19917 10.7492 9.2575 10.5625C9.42083 10.0725 9.54053 9.57363 9.6166 9.0659C9.6922 8.55863 9.73 8.03667 9.73 7.5C9.73 6.96333 9.6922 6.44113 9.6166 5.9334C9.54053 5.42613 9.42083 4.9275 9.2575 4.4375C9.19917 4.25083 9.07667 4.11667 8.89 4.035C8.70333 3.95333 8.51083 3.95917 8.3125 4.0525C8.14917 4.1225 8.0297 4.24197 7.9541 4.4109C7.87803 4.5803 7.86917 4.7525 7.9275 4.9275C8.05583 5.33583 8.155 5.75583 8.225 6.1875C8.295 6.61917 8.33 7.05667 8.33 7.5C8.33 7.94333 8.295 8.38083 8.225 8.8125C8.155 9.24417 8.05583 9.66417 7.9275 10.0725C7.86917 10.2475 7.88083 10.4197 7.9625 10.5891C8.04417 10.758 8.16667 10.8775 8.33 10.9475ZM6.0725 10.0375C6.25917 10.1075 6.44 10.1047 6.615 10.0291C6.79 9.95303 6.90667 9.8275 6.965 9.6525C7.07 9.31417 7.14887 8.96417 7.2016 8.6025C7.25387 8.24083 7.28 7.87333 7.28 7.5C7.28 7.12667 7.25387 6.75917 7.2016 6.3975C7.14887 6.03583 7.07 5.68583 6.965 5.3475C6.90667 5.1725 6.79 5.04417 6.615 4.9625C6.44 4.88083 6.25917 4.88083 6.0725 4.9625C5.90917 5.0325 5.78667 5.15197 5.705 5.3209C5.62333 5.4903 5.61167 5.67417 5.67 5.8725C5.75167 6.14083 5.8072 6.40917 5.8366 6.6775C5.86553 6.94583 5.88 7.22 5.88 7.5C5.88 7.78 5.86553 8.05417 5.8366 8.3225C5.8072 8.59083 5.75167 8.85917 5.67 9.1275C5.61167 9.32583 5.62053 9.5097 5.6966 9.6791C5.7722 9.84803 5.8975 9.9675 6.0725 10.0375ZM3.7975 9.075C3.99583 9.15667 4.1825 9.15667 4.3575 9.075C4.5325 8.99333 4.64333 8.85333 4.69 8.655C4.73667 8.46833 4.77167 8.27863 4.795 8.0859C4.81833 7.89363 4.83 7.69833 4.83 7.5C4.83 7.30167 4.81833 7.10613 4.795 6.9134C4.77167 6.72113 4.73667 6.53167 4.69 6.345C4.64333 6.14667 4.5325 6.00667 4.3575 5.925C4.1825 5.84333 3.99583 5.84333 3.7975 5.925C3.63417 5.98333 3.51167 6.0972 3.43 6.2666C3.34833 6.43553 3.325 6.61333 3.36 6.8C3.38333 6.91667 3.40083 7.03333 3.4125 7.15C3.42417 7.26667 3.43 7.38333 3.43 7.5C3.43 7.61667 3.42417 7.73333 3.4125 7.85C3.40083 7.96667 3.38333 8.08333 3.36 8.2C3.325 8.38667 3.34833 8.56167 3.43 8.725C3.51167 8.88833 3.63417 9.005 3.7975 9.075ZM7 14.5C6.03167 14.5 5.12167 14.3161 4.27 13.9484C3.41833 13.5811 2.6775 13.0825 2.0475 12.4525C1.4175 11.8225 0.918867 11.0817 0.5516 10.23C0.183867 9.37833 0 8.46833 0 7.5C0 6.53167 0.183867 5.62167 0.5516 4.77C0.918867 3.91833 1.4175 3.1775 2.0475 2.5475C2.6775 1.9175 3.41833 1.41863 4.27 1.0509C5.12167 0.683633 6.03167 0.5 7 0.5C7.96833 0.5 8.87833 0.683633 9.73 1.0509C10.5817 1.41863 11.3225 1.9175 11.9525 2.5475C12.5825 3.1775 13.0811 3.91833 13.4484 4.77C13.8161 5.62167 14 6.53167 14 7.5C14 8.46833 13.8161 9.37833 13.4484 10.23C13.0811 11.0817 12.5825 11.8225 11.9525 12.4525C11.3225 13.0825 10.5817 13.5811 9.73 13.9484C8.87833 14.3161 7.96833 14.5 7 14.5Z" fill="#75FF8C"/>
</svg>
