<svg width="25" height="24" viewBox="0 0 25 24" fill="none" xmlns="http://www.w3.org/2000/svg">
<g clip-path="url(#clip0_239_693)">
<path d="M16.4517 12.123L24.5427 17.238V6.79199L16.4517 12.123Z" fill="#9092B0"/>
<path d="M0.542725 6.79199V17.238L8.63372 12.123L0.542725 6.79199Z" fill="#9092B0"/>
<path d="M23.0426 3.75H2.04265C1.29415 3.75 0.700146 4.308 0.587646 5.0265L12.5426 12.903L24.4976 5.0265C24.3851 4.308 23.7911 3.75 23.0426 3.75Z" fill="#9092B0"/>
<path d="M15.0778 13.0288L12.9553 14.4268C12.8293 14.5093 12.6868 14.5498 12.5428 14.5498C12.3988 14.5498 12.2563 14.5093 12.1303 14.4268L10.0078 13.0273L0.59082 18.9838C0.70632 19.6963 1.29732 20.2498 2.04282 20.2498H23.0428C23.7883 20.2498 24.3793 19.6963 24.4948 18.9838L15.0778 13.0288Z" fill="#9092B0"/>
</g>
<defs>
<clipPath id="clip0_239_693">
<rect width="24" height="24" fill="white" transform="translate(0.542725)"/>
</clipPath>
</defs>
</svg>
