<svg width="10" height="13" viewBox="0 0 10 13" fill="none" xmlns="http://www.w3.org/2000/svg">
<path fill-rule="evenodd" clip-rule="evenodd" d="M2.95726 2.7628L1.04344 5.24863C0.240499 6.29156 -0.160972 6.81303 0.0602451 7.22304C0.0639077 7.22983 0.0676797 7.23657 0.0715596 7.24326C0.305901 7.64702 0.99929 7.64702 2.38607 7.64702C3.15671 7.64702 3.54203 7.64702 3.78372 7.86525L3.79623 7.87679L6.21618 5.13481L6.20366 5.12326C5.96708 4.90033 5.96708 4.54492 5.96708 3.8341V3.64828C5.96708 1.6775 5.96708 0.692107 5.38998 0.522328C4.81289 0.352549 4.19435 1.15597 2.95726 2.7628Z" fill="#75FF8C"/>
<path d="M4.03291 9.16594L4.03291 9.35168C4.03288 11.3225 4.03286 12.3079 4.60996 12.4777C5.18705 12.6475 5.80561 11.844 7.04272 10.2372L8.95654 7.7514C9.75949 6.70847 10.161 6.187 9.93976 5.77698C9.93609 5.77019 9.93232 5.76345 9.92844 5.75677C9.6941 5.353 9.00071 5.353 7.61392 5.353C6.84329 5.353 6.45787 5.35303 6.21618 5.13481L3.79623 7.87679C4.03282 8.09973 4.03292 8.45511 4.03291 9.16594Z" fill="#75FF8C"/>
</svg>
