<svg width="21" height="20" viewBox="0 0 21 20" fill="none" xmlns="http://www.w3.org/2000/svg">
<g clip-path="url(#clip0_127_425)">
<path fill-rule="evenodd" clip-rule="evenodd" d="M10.4968 0.00683594C7.78187 0.00683594 7.44142 0.0183439 6.37516 0.0669947C5.31111 0.115526 4.58441 0.284535 3.94853 0.531677C3.29115 0.787114 2.73365 1.12894 2.17786 1.68469C1.6221 2.24048 1.28028 2.79798 1.02484 3.45537C0.777698 4.09124 0.608691 4.81795 0.560159 5.88199C0.511508 6.94827 0.5 7.2887 0.5 10.0037C0.5 12.7187 0.511508 13.0591 0.560159 14.1254C0.608691 15.1894 0.777698 15.9162 1.02484 16.552C1.28028 17.2094 1.6221 17.7669 2.17786 18.3227C2.73365 18.8784 3.29115 19.2202 3.94853 19.4757C4.58441 19.7228 5.31111 19.8918 6.37516 19.9404C7.44142 19.989 7.78187 20.0005 10.4968 20.0005C13.2118 20.0005 13.5522 19.989 14.6185 19.9404C15.6826 19.8918 16.4092 19.7228 17.0452 19.4757C17.7025 19.2202 18.26 18.8784 18.8158 18.3227C19.3716 17.7669 19.7134 17.2094 19.9689 16.552C20.216 15.9162 20.385 15.1894 20.4335 14.1254C20.4822 13.0591 20.4937 12.7187 20.4937 10.0037C20.4937 7.2887 20.4822 6.94827 20.4335 5.88199C20.385 4.81795 20.216 4.09124 19.9689 3.45537C19.7134 2.79798 19.3716 2.24048 18.8158 1.68469C18.26 1.12894 17.7025 0.787114 17.0452 0.531677C16.4092 0.284535 15.6826 0.115526 14.6185 0.0669947C13.5522 0.0183439 13.2118 0.00683594 10.4968 0.00683594ZM7.16457 10.0037C7.16457 11.8441 8.65647 13.336 10.4968 13.336C12.3372 13.336 13.8292 11.8441 13.8292 10.0037C13.8292 8.1633 12.3372 6.6714 10.4968 6.6714C8.65647 6.6714 7.16457 8.1633 7.16457 10.0037ZM5.36333 10.0037C5.36333 7.1685 7.66167 4.87017 10.4968 4.87017C13.332 4.87017 15.6303 7.1685 15.6303 10.0037C15.6303 12.8388 13.332 15.1372 10.4968 15.1372C7.66167 15.1372 5.36333 12.8388 5.36333 10.0037ZM15.8332 5.86696C16.4957 5.86696 17.0328 5.32989 17.0328 4.66735C17.0328 4.00481 16.4957 3.46771 15.8332 3.46771C15.1707 3.46771 14.6336 4.00481 14.6336 4.66735C14.6336 5.32989 15.1707 5.86696 15.8332 5.86696Z" fill="white" fill-opacity="0.7"/>
</g>
<defs>
<clipPath id="clip0_127_425">
<rect width="20" height="20" fill="white" transform="translate(0.5)"/>
</clipPath>
</defs>
</svg>
