<svg width="21" height="20" viewBox="0 0 21 20" fill="none" xmlns="http://www.w3.org/2000/svg">
<g clip-path="url(#clip0_127_421)">
<path fill-rule="evenodd" clip-rule="evenodd" d="M5.05094 19.5396V6.66598H0.772461V19.5396H5.05094V19.5396ZM2.91215 4.90895C4.40367 4.90895 5.33277 3.91957 5.33277 2.68422C5.30457 1.42141 4.40367 0.459961 2.94012 0.459961C1.47633 0.46 0.519531 1.42145 0.519531 2.68426C0.519531 3.91961 1.44813 4.90898 2.88398 4.90898L2.91215 4.90895ZM7.41891 19.5396C7.41891 19.5396 7.47504 7.87387 7.41891 6.66602H11.698V8.53297H11.6696C12.2323 7.65445 13.246 6.36371 15.554 6.36371C18.3698 6.36371 20.4804 8.20367 20.4804 12.158V19.5396H16.202V12.6526C16.202 10.9221 15.5829 9.74125 14.0341 9.74125C12.8523 9.74125 12.148 10.5373 11.8387 11.3069C11.7256 11.5808 11.698 11.9655 11.698 12.3503V19.5396H7.41891Z" fill="white" fill-opacity="0.7"/>
</g>
<defs>
<clipPath id="clip0_127_421">
<rect width="20" height="20" fill="white" transform="translate(0.5)"/>
</clipPath>
</defs>
</svg>
