<svg width="40" height="40" viewBox="0 0 40 40" fill="none" xmlns="http://www.w3.org/2000/svg">
<rect width="40" height="40" rx="20" fill="#A2DE49"/>
<path fill-rule="evenodd" clip-rule="evenodd" d="M18 15C18 14.4477 18.4477 14 19 14H27C27.5523 14 28 14.4477 28 15C28 15.5523 27.5523 16 27 16H19C18.4477 16 18 15.5523 18 15ZM12 20C12 19.4477 12.4477 19 13 19H27C27.5523 19 28 19.4477 28 20C28 20.5523 27.5523 21 27 21H13C12.4477 21 12 20.5523 12 20ZM12 25C12 24.4477 12.4477 24 13 24H21C21.5523 24 22 24.4477 22 25C22 25.5523 21.5523 26 21 26H13C12.4477 26 12 25.5523 12 25Z" fill="#171717"/>
</svg>
