<svg width="10" height="11" viewBox="0 0 10 11" fill="none" xmlns="http://www.w3.org/2000/svg">
<path fill-rule="evenodd" clip-rule="evenodd" d="M0.00124991 3.625H9.99875C9.99125 2.26562 9.93125 1.52938 9.45063 1.04938C8.90188 0.5 8.0175 0.5 6.25 0.5H3.75C1.9825 0.5 1.09813 0.5 0.549375 1.04938C0.0687501 1.52938 0.00874991 2.26562 0.00124991 3.625ZM10 4.875H0V6.75C0 8.5175 1.19209e-07 9.40188 0.549375 9.95063C1.09813 10.5 1.9825 10.5 3.75 10.5H6.25C8.0175 10.5 8.90188 10.5 9.45063 9.95063C10 9.40188 10 8.5175 10 6.75V4.875Z" fill="#75FF8C"/>
</svg>
