<svg width="25" height="24" viewBox="0 0 25 24" fill="none" xmlns="http://www.w3.org/2000/svg">
<path d="M8.91333 11.1933C9.87333 13.08 11.42 14.62 13.3067 15.5867L14.7733 14.12C14.9533 13.94 15.22 13.88 15.4533 13.96C16.2 14.2067 17.0067 14.34 17.8333 14.34C18.2 14.34 18.5 14.64 18.5 15.0067V17.3333C18.5 17.7 18.2 18 17.8333 18C11.5733 18 6.5 12.9267 6.5 6.66667C6.5 6.3 6.8 6 7.16667 6H9.5C9.86667 6 10.1667 6.3 10.1667 6.66667C10.1667 7.5 10.3 8.3 10.5467 9.04667C10.62 9.28 10.5667 9.54 10.38 9.72667L8.91333 11.1933Z" fill="#A2DE49"/>
</svg>
