<svg width="12" height="13" viewBox="0 0 12 13" fill="none" xmlns="http://www.w3.org/2000/svg">
<path fill-rule="evenodd" clip-rule="evenodd" d="M6.00012 1.36748C5.41302 1.36748 4.91236 1.72894 4.72682 2.23491C4.644 2.46077 4.3869 2.57915 4.15258 2.49932C3.91826 2.41949 3.79544 2.17169 3.87826 1.94583C4.18692 1.1041 5.01975 0.5 6.00012 0.5C6.98048 0.5 7.81331 1.1041 8.12197 1.94583C8.20479 2.17169 8.08198 2.41949 7.84765 2.49932C7.61333 2.57915 7.35624 2.46077 7.27341 2.23492C7.08787 1.72894 6.58721 1.36748 6.00012 1.36748Z" fill="#75FF8C"/>
<path d="M7.2 7.00607H4.8C4.63431 7.00607 4.5 7.13553 4.5 7.29523V8.54526C4.5 8.66349 4.57469 8.76982 4.68858 8.81373L5.10866 8.97569C5.68085 9.1963 6.31915 9.1963 6.89134 8.97569L7.31142 8.81373C7.42532 8.76982 7.5 8.66349 7.5 8.54526V7.29523C7.5 7.13553 7.36569 7.00607 7.2 7.00607Z" fill="#75FF8C"/>
<path d="M3.60646 8.66535L0.603516 7.79702C0.621571 9.59819 0.730735 11.257 1.39075 11.8225C2.18156 12.5 3.45435 12.5 5.99994 12.5C8.54552 12.5 9.81831 12.5 10.6091 11.8225C11.2691 11.257 11.3783 9.59819 11.3964 7.79703L8.39355 8.66532C8.3478 9.08907 8.06233 9.45852 7.64567 9.61916L7.22559 9.78112C6.43883 10.0845 5.56117 10.0845 4.77441 9.78112L4.35433 9.61916C3.93768 9.45853 3.65221 9.08908 3.60646 8.66535Z" fill="#75FF8C"/>
<path d="M3.36536 2.66869H8.63464C10.1047 2.66869 10.8398 2.66869 11.336 3.05789C11.4314 3.13269 11.5186 3.21672 11.5962 3.30865C12 3.78698 12 4.49547 12 5.91243C12 6.27199 12 6.45176 11.9095 6.592C11.8919 6.61932 11.872 6.64517 11.8499 6.66929C11.7365 6.79311 11.5579 6.84476 11.2006 6.94808L8.4 7.75789V7.29523C8.4 6.65644 7.86274 6.1386 7.2 6.1386H4.8C4.13726 6.1386 3.6 6.65644 3.6 7.29523V7.75789L0.799443 6.94808C0.442141 6.84476 0.26349 6.79311 0.150127 6.66929C0.128045 6.64517 0.108089 6.61932 0.0904662 6.592C0 6.45176 0 6.27199 0 5.91243C0 4.49547 0 3.78698 0.403789 3.30865C0.481397 3.21672 0.568575 3.13269 0.663957 3.05789C1.16022 2.66869 1.89526 2.66869 3.36536 2.66869Z" fill="#75FF8C"/>
</svg>
