<svg width="29" height="29" viewBox="0 0 29 29" fill="none" xmlns="http://www.w3.org/2000/svg">
<g clip-path="url(#clip0_239_706)">
<path d="M18.7835 6.80702L3.36181 14.3327C2.71209 14.6497 2.30407 15.2958 2.29688 16.0187C2.28976 16.7416 2.68493 17.3956 3.32821 17.7254L8.40868 20.3305L12.9813 15.1535C13.1917 14.9152 13.5554 14.8927 13.7937 15.1031C14.0319 15.3135 14.0545 15.6773 13.8441 15.9155L9.27145 21.0925L12.4841 25.8123C12.8908 26.41 13.5886 26.7214 14.3052 26.6249C15.0231 26.5283 15.6127 26.0426 15.8467 25.3599L21.41 9.12674C21.6633 8.38766 21.4568 7.60725 20.8712 7.09003C20.2856 6.57282 19.4857 6.46432 18.7835 6.80702Z" fill="#001102"/>
</g>
<defs>
<clipPath id="clip0_239_706">
<rect width="19.6445" height="19.6445" fill="white" transform="translate(0.504639 15.3105) rotate(-48.5475)"/>
</clipPath>
</defs>
</svg>
