<svg width="28" height="28" viewBox="0 0 28 28" fill="none" xmlns="http://www.w3.org/2000/svg">
<path d="M23.3334 15.1661C23.3334 20.9995 19.2501 23.9161 14.3967 25.6078C14.1426 25.6939 13.8665 25.6898 13.6151 25.5961C8.75008 23.9161 4.66675 20.9995 4.66675 15.1661V6.99947C4.66675 6.69005 4.78966 6.3933 5.00846 6.17451C5.22725 5.95572 5.524 5.8328 5.83341 5.8328C8.16675 5.8328 11.0834 4.4328 13.1134 2.65947C13.3606 2.4483 13.675 2.33228 14.0001 2.33228C14.3252 2.33228 14.6396 2.4483 14.8867 2.65947C16.9284 4.44447 19.8334 5.8328 22.1667 5.8328C22.4762 5.8328 22.7729 5.95572 22.9917 6.17451C23.2105 6.3933 23.3334 6.69005 23.3334 6.99947V15.1661Z" stroke="#1D9B5E" stroke-width="2.14" stroke-linecap="round" stroke-linejoin="round"/>
<path d="M10.5 13.9997L12.8333 16.333L17.5 11.6664" stroke="#1D9B5E" stroke-width="2.14" stroke-linecap="round" stroke-linejoin="round"/>
</svg>
