<svg width="14" height="15" viewBox="0 0 14 15" fill="none" xmlns="http://www.w3.org/2000/svg">
<path d="M7.20588 13.1686H7C5.05098 13.1686 3.39706 12.5296 2.03824 11.2514C0.679412 9.97329 0 8.41759 0 6.58431C0 4.75103 0.679412 3.19533 2.03824 1.9172C3.39706 0.639065 5.05098 0 7 0C7.97451 0 8.88396 0.170934 9.72835 0.512802C10.5727 0.854669 11.3139 1.3259 11.9519 1.92649C12.5898 2.52708 13.0905 3.22425 13.454 4.01798C13.8175 4.81171 13.9995 5.66715 14 6.58431C14 8.31431 13.4817 9.92165 12.4452 11.4063C11.4086 12.891 10.1014 14.053 8.52353 14.8922C8.38628 14.9567 8.24902 14.9923 8.11176 14.9991C7.97451 15.0058 7.85098 14.9766 7.74118 14.9115C7.63137 14.8465 7.53529 14.7625 7.45294 14.6598C7.37059 14.557 7.32255 14.4344 7.30882 14.2918L7.20588 13.1686ZM6.97941 10.8254C7.21275 10.8254 7.41176 10.7479 7.57647 10.593C7.74118 10.4381 7.82353 10.2509 7.82353 10.0314C7.82353 9.81191 7.74118 9.62471 7.57647 9.46979C7.41176 9.31486 7.21275 9.2374 6.97941 9.2374C6.74608 9.2374 6.54706 9.31486 6.38235 9.46979C6.21765 9.62471 6.13529 9.81191 6.13529 10.0314C6.13529 10.2509 6.21765 10.4381 6.38235 10.593C6.54706 10.7479 6.74608 10.8254 6.97941 10.8254ZM5.18824 4.93823C5.33922 5.00278 5.4902 5.00614 5.64118 4.9483C5.79216 4.89046 5.91569 4.79673 6.01177 4.66711C6.13529 4.51219 6.27941 4.39264 6.44412 4.30846C6.60882 4.22429 6.79412 4.18246 7 4.18297C7.32941 4.18297 7.59706 4.26999 7.80294 4.44402C8.00882 4.61805 8.11176 4.84089 8.11176 5.11252C8.11176 5.28036 8.06043 5.44819 7.95777 5.61603C7.8551 5.78386 7.6731 5.99043 7.41176 6.23573C7.06863 6.51976 6.81471 6.78778 6.65 7.03979C6.48529 7.2918 6.40294 7.54665 6.40294 7.80434C6.40294 7.95927 6.46141 8.09173 6.57835 8.20173C6.69529 8.31172 6.83584 8.36646 7 8.36595C7.16416 8.36543 7.30141 8.30733 7.41176 8.19166C7.52212 8.07598 7.60447 7.94042 7.65882 7.78498C7.72745 7.5655 7.85098 7.36539 8.02941 7.18464C8.20784 7.0039 8.37255 6.84252 8.52353 6.7005C8.81176 6.42938 9.02808 6.15827 9.17247 5.88715C9.31686 5.61603 9.38878 5.34491 9.38824 5.07379C9.38824 4.47991 9.17192 4.00223 8.7393 3.64074C8.30667 3.27924 7.7269 3.0985 7 3.0985C6.56078 3.0985 6.15588 3.19868 5.78529 3.39905C5.41471 3.59942 5.11275 3.87364 4.87941 4.2217C4.79706 4.36372 4.78663 4.50264 4.84812 4.63845C4.90961 4.77427 5.02298 4.8742 5.18824 4.93823Z" fill="#75FF8C"/>
</svg>
