<svg width="21" height="20" viewBox="0 0 21 20" fill="none" xmlns="http://www.w3.org/2000/svg">
<g clip-path="url(#clip0_127_428)">
<path fill-rule="evenodd" clip-rule="evenodd" d="M6.79 17.9998C14.337 17.9998 18.465 11.8434 18.465 6.50517C18.465 6.32992 18.465 6.15599 18.453 5.98271C19.256 5.41167 19.949 4.70266 20.5 3.8914C19.752 4.21827 18.957 4.43263 18.144 4.52714C19 4.02207 19.641 3.22858 19.948 2.29228C19.142 2.76289 18.261 3.09502 17.342 3.27323C15.788 1.64676 13.189 1.56796 11.536 3.09794C10.471 4.08445 10.018 5.55532 10.349 6.95829C7.05 6.79486 3.976 5.26097 1.892 2.73759C0.803 4.5836 1.36 6.94429 3.163 8.12968C2.51 8.11097 1.871 7.93788 1.3 7.6248V7.67606C1.301 9.59889 2.678 11.2545 4.592 11.6355C3.988 11.798 3.354 11.8215 2.74 11.7044C3.277 13.3505 4.818 14.478 6.573 14.5105C5.12 15.6349 3.325 16.2454 1.477 16.2434C1.151 16.2425 0.825 16.2237 0.5 16.1853C2.377 17.3707 4.56 17.9998 6.79 17.9969" fill="white" fill-opacity="0.7"/>
</g>
<defs>
<clipPath id="clip0_127_428">
<rect width="20" height="20" fill="white" transform="translate(0.5)"/>
</clipPath>
</defs>
</svg>
