<svg width="25" height="24" viewBox="0 0 25 24" fill="none" xmlns="http://www.w3.org/2000/svg">
<path d="M12.1551 5.78794C11.8996 4.39528 12.5581 2.96208 13.3512 1.99622C14.2252 0.930515 15.725 0.11325 17.0068 0.0234375C17.2233 1.48355 16.6274 2.90616 15.843 3.91242C15.0016 4.99345 13.555 5.83177 12.1551 5.78794ZM19.6734 10.8343C20.07 9.72773 20.8557 8.73215 22.0747 8.06044C20.8429 6.52331 19.1134 5.63091 17.4814 5.63091C15.3221 5.63091 14.4091 6.65967 12.9093 6.65967C11.3643 6.65967 10.1922 5.63091 8.32181 5.63091C6.48773 5.63091 4.53543 6.74878 3.29728 8.65795C2.84203 9.36366 2.53364 10.2404 2.36545 11.2169C1.89876 13.9562 2.59589 17.5242 4.6754 20.6924C5.6865 22.2297 7.0342 23.9613 8.79482 23.9764C10.3632 23.9917 10.8082 22.9736 12.9314 22.9631C15.0577 22.951 15.4607 23.9869 17.0269 23.972C18.7881 23.9571 20.21 22.0408 21.2211 20.5036C21.9411 19.4006 22.2133 18.8434 22.7731 17.5963C19.9266 16.5228 18.7558 13.3861 19.6734 10.8343Z" fill="white"/>
</svg>
