<svg width="212" height="198" viewBox="0 0 212 198" fill="none" xmlns="http://www.w3.org/2000/svg">
<rect opacity="0.15" width="74.1609" height="70.3683" rx="10" transform="matrix(0.988345 -0.152229 0.169566 0.985519 92 38.2893)" fill="#F1F5EB"/>
<rect opacity="0.1" x="103.139" y="34.7288" width="74.2615" height="70.2622" rx="10" fill="#F1F5EB"/>
<g filter="url(#filter0_d_96_371)">
<path d="M35 46.6633C35 38.3791 41.7157 31.6633 50 31.6633H109.134C113.712 31.6633 118.039 33.7537 120.884 37.3396L130.145 49.0105C132.99 52.5964 137.318 54.6867 141.895 54.6867H162C170.284 54.6867 177 61.4025 177 69.6867V143.663C177 151.948 170.284 158.663 162 158.663H50C41.7157 158.663 35 151.948 35 143.663V46.6633Z" fill="white"/>
</g>
<rect x="45" y="40.9336" width="52.5159" height="52.5159" rx="26.258" fill="#F1F5EB"/>
<path d="M76.4545 66.1364C78.7182 66.1364 80.5318 64.3091 80.5318 62.0455C80.5318 59.7819 78.7182 57.9546 76.4545 57.9546C74.1909 57.9546 72.3636 59.7819 72.3636 62.0455C72.3636 64.3091 74.1909 66.1364 76.4545 66.1364ZM65.5455 66.1364C67.8091 66.1364 69.6227 64.3091 69.6227 62.0455C69.6227 59.7819 67.8091 57.9546 65.5455 57.9546C63.2818 57.9546 61.4545 59.7819 61.4545 62.0455C61.4545 64.3091 63.2818 66.1364 65.5455 66.1364ZM65.5455 68.8637C62.3682 68.8637 56 70.4591 56 73.6364V77.0455H75.0909V73.6364C75.0909 70.4591 68.7227 68.8637 65.5455 68.8637ZM76.4545 68.8637C76.0591 68.8637 75.6091 68.891 75.1318 68.9319C76.7136 70.0773 77.8182 71.6182 77.8182 73.6364V77.0455H86V73.6364C86 70.4591 79.6318 68.8637 76.4545 68.8637Z" fill="#1D9B5E"/>
<path d="M48.7036 119.989C48.7636 121.469 49.6836 122.269 51.0636 122.269C52.5036 122.269 53.3836 121.389 53.3836 119.869C53.3836 118.289 52.4036 117.369 50.9636 117.369C49.9836 117.369 49.3036 117.809 48.9636 118.329H46.0436L46.8836 110.449H55.6836V112.929H49.2836L48.9436 116.149C49.5436 115.449 50.4436 115.049 51.6836 115.049C54.3036 115.049 56.4236 116.829 56.4236 119.849C56.4236 122.729 54.4836 124.749 51.1436 124.749C47.9836 124.749 45.8036 122.949 45.7436 119.989H48.7036ZM62.748 116.669C63.828 115.949 64.428 115.329 64.428 114.329C64.428 113.269 63.728 112.629 62.528 112.629C61.148 112.629 60.408 113.529 60.408 115.209H57.448C57.448 111.869 59.548 110.149 62.568 110.149C65.608 110.149 67.468 111.889 67.468 114.449C67.468 116.209 66.588 117.369 64.628 118.649L62.188 120.249C61.488 120.709 60.968 121.269 60.628 121.969H67.568V124.449H57.128C57.128 121.769 57.988 119.749 60.288 118.249L62.748 116.669ZM69.9928 125.149C70.1328 124.849 70.1128 124.589 69.8328 124.409C69.3928 124.109 69.1328 123.649 69.1328 123.069C69.1328 122.129 69.8328 121.409 70.8528 121.409C71.8928 121.409 72.6328 122.129 72.6328 123.209C72.6328 123.669 72.4928 124.149 72.1928 124.849L70.8128 128.009H68.6928L69.9928 125.149ZM78.5036 124.749C75.1636 124.749 73.2236 122.049 73.2236 117.449C73.2236 112.849 75.1636 110.149 78.5036 110.149C81.8636 110.149 83.8036 112.849 83.8036 117.449C83.8036 122.049 81.8636 124.749 78.5036 124.749ZM78.5036 122.269C79.9836 122.269 80.7636 120.609 80.7636 117.469C80.7636 114.309 79.9836 112.629 78.5036 112.629C77.0436 112.629 76.2436 114.309 76.2436 117.469C76.2436 120.609 77.0436 122.269 78.5036 122.269ZM90.2614 124.749C86.9214 124.749 84.9814 122.049 84.9814 117.449C84.9814 112.849 86.9214 110.149 90.2614 110.149C93.6214 110.149 95.5614 112.849 95.5614 117.449C95.5614 122.049 93.6214 124.749 90.2614 124.749ZM90.2614 122.269C91.7414 122.269 92.5214 120.609 92.5214 117.469C92.5214 114.309 91.7414 112.629 90.2614 112.629C88.8014 112.629 88.0014 114.309 88.0014 117.469C88.0014 120.609 88.8014 122.269 90.2614 122.269ZM102.019 124.749C98.6792 124.749 96.7392 122.049 96.7392 117.449C96.7392 112.849 98.6792 110.149 102.019 110.149C105.379 110.149 107.319 112.849 107.319 117.449C107.319 122.049 105.379 124.749 102.019 124.749ZM102.019 122.269C103.499 122.269 104.279 120.609 104.279 117.469C104.279 114.309 103.499 112.629 102.019 112.629C100.559 112.629 99.7592 114.309 99.7592 117.469C99.7592 120.609 100.559 122.269 102.019 122.269ZM111.859 119.589C111.859 119.169 111.599 118.949 111.179 118.949H108.739V116.469H111.179C111.599 116.469 111.859 116.249 111.859 115.829V113.109H114.819V115.829C114.819 116.249 115.059 116.469 115.479 116.469H117.939V118.949H115.479C115.059 118.949 114.819 119.169 114.819 119.589V122.309H111.859V119.589Z" fill="#04391F"/>
<path d="M45.1615 146.449L49.0535 136.649H50.4955L54.3875 146.449H53.0295L51.8675 143.509H47.6815L46.5335 146.449H45.1615ZM48.0735 142.375H51.4755L49.7955 138.091H49.7395L48.0735 142.375ZM57.8799 146.659C55.8499 146.659 54.4779 145.189 54.4779 142.935C54.4779 140.681 55.8499 139.211 57.8799 139.211C59.6019 139.211 60.8339 140.275 61.0579 142.053H59.8539C59.6999 140.975 58.9019 140.275 57.8659 140.275C56.5919 140.275 55.7239 141.325 55.7239 142.935C55.7239 144.545 56.6059 145.595 57.8799 145.595C58.9159 145.595 59.7839 144.881 59.9379 143.775H61.1279C60.9319 145.567 59.6159 146.659 57.8799 146.659ZM64.89 146.449C63.462 146.449 62.776 145.693 62.776 144.447V140.485H61.502V139.421H62.272C62.636 139.421 62.832 139.225 62.832 138.861V137.209H63.952V139.421H65.38V140.485H63.966V144.965C63.966 145.273 64.092 145.385 64.4 145.385H65.59V146.449H64.89ZM66.5731 146.449V139.421H67.7771V146.449H66.5731ZM67.1751 137.881C66.7271 137.881 66.3911 137.573 66.3911 137.139C66.3911 136.719 66.7271 136.383 67.1751 136.383C67.6091 136.383 67.9451 136.719 67.9451 137.139C67.9451 137.573 67.6091 137.881 67.1751 137.881ZM71.1844 146.449L68.6084 139.421H69.8824L71.8704 145.049H71.9264L73.9284 139.421H75.2024L72.6264 146.449H71.1844ZM78.7979 146.659C76.7119 146.659 75.3959 145.203 75.3959 142.949C75.3959 140.709 76.6979 139.211 78.7699 139.211C80.9259 139.211 82.2139 140.835 81.9199 143.285H76.6279C76.6979 144.741 77.4819 145.623 78.7979 145.623C79.9039 145.623 80.4639 144.979 80.6319 144.461H81.8359C81.5139 145.693 80.4919 146.659 78.7979 146.659ZM76.6559 142.319H80.7159C80.7579 141.185 80.0579 140.233 78.7139 140.233C77.5799 140.233 76.7959 141.031 76.6559 142.319ZM90.8854 146.659C88.0994 146.659 86.2514 144.643 86.2514 141.535C86.2514 138.441 88.0854 136.439 90.8714 136.439C93.3214 136.439 94.9874 138.007 95.2254 140.317H93.9514C93.7694 138.721 92.5934 137.601 90.8714 137.601C88.8694 137.601 87.5814 139.155 87.5814 141.549C87.5814 143.943 88.8974 145.497 90.8714 145.497C92.6214 145.497 93.8814 144.349 94.0634 142.739H95.3234C95.0994 145.077 93.3634 146.659 90.8854 146.659ZM98.7275 146.659C97.1735 146.659 96.2075 145.637 96.2075 143.901V139.421H97.4115V143.621C97.4115 144.965 97.9155 145.595 98.9235 145.595C100.127 145.595 100.883 144.685 100.897 142.851V139.421H102.101V146.449H100.995V145.259C100.561 146.197 99.7775 146.659 98.7275 146.659ZM107.012 142.473C108.384 142.725 109.14 143.397 109.14 144.517C109.14 145.819 108.048 146.659 106.298 146.659C104.38 146.659 103.218 145.665 103.176 144.181H104.296C104.408 145.049 105.024 145.637 106.284 145.637C107.292 145.637 107.922 145.245 107.922 144.489C107.922 143.915 107.544 143.621 106.69 143.467L105.626 143.285C104.142 143.033 103.386 142.403 103.386 141.325C103.386 140.121 104.352 139.211 106.06 139.211C107.726 139.211 108.818 140.093 108.916 141.549H107.754C107.67 140.751 107.096 140.219 106.032 140.219C105.052 140.219 104.59 140.667 104.59 141.269C104.59 141.801 104.94 142.109 105.92 142.277L107.012 142.473ZM112.933 146.449C111.505 146.449 110.819 145.693 110.819 144.447V140.485H109.545V139.421H110.315C110.679 139.421 110.875 139.225 110.875 138.861V137.209H111.995V139.421H113.423V140.485H112.009V144.965C112.009 145.273 112.135 145.385 112.443 145.385H113.633V146.449H112.933ZM117.559 146.659C115.473 146.659 114.101 145.189 114.101 142.935C114.101 140.681 115.473 139.211 117.559 139.211C119.659 139.211 121.017 140.681 121.017 142.935C121.017 145.189 119.659 146.659 117.559 146.659ZM117.559 145.595C118.903 145.595 119.771 144.545 119.771 142.935C119.771 141.325 118.903 140.275 117.559 140.275C116.229 140.275 115.347 141.325 115.347 142.935C115.347 144.545 116.229 145.595 117.559 145.595ZM122.122 146.449V139.421H123.214V140.611C123.62 139.687 124.376 139.211 125.398 139.211C126.49 139.211 127.232 139.743 127.568 140.681C127.96 139.743 128.758 139.211 129.836 139.211C131.32 139.211 132.188 140.233 132.188 141.871V146.449H130.998V142.221C130.998 140.891 130.536 140.275 129.598 140.275C128.492 140.275 127.764 141.171 127.764 142.991V146.449H126.56V142.221C126.56 140.891 126.098 140.275 125.16 140.275C124.04 140.275 123.326 141.185 123.326 142.991V146.449H122.122ZM136.589 146.659C134.503 146.659 133.187 145.203 133.187 142.949C133.187 140.709 134.489 139.211 136.561 139.211C138.717 139.211 140.005 140.835 139.711 143.285H134.419C134.489 144.741 135.273 145.623 136.589 145.623C137.695 145.623 138.255 144.979 138.423 144.461H139.627C139.305 145.693 138.283 146.659 136.589 146.659ZM134.447 142.319H138.507C138.549 141.185 137.849 140.233 136.505 140.233C135.371 140.233 134.587 141.031 134.447 142.319ZM140.866 140.765C140.866 139.897 141.342 139.421 142.168 139.421H144.38V140.485H142.07V146.449H140.866V140.765ZM148.506 142.473C149.878 142.725 150.634 143.397 150.634 144.517C150.634 145.819 149.542 146.659 147.792 146.659C145.874 146.659 144.712 145.665 144.67 144.181H145.79C145.902 145.049 146.518 145.637 147.778 145.637C148.786 145.637 149.416 145.245 149.416 144.489C149.416 143.915 149.038 143.621 148.184 143.467L147.12 143.285C145.636 143.033 144.88 142.403 144.88 141.325C144.88 140.121 145.846 139.211 147.554 139.211C149.22 139.211 150.312 140.093 150.41 141.549H149.248C149.164 140.751 148.59 140.219 147.526 140.219C146.546 140.219 146.084 140.667 146.084 141.269C146.084 141.801 146.434 142.109 147.414 142.277L148.506 142.473Z" fill="black" fill-opacity="0.6"/>
<defs>
<filter id="filter0_d_96_371" x="0" y="0.66333" width="212" height="197" filterUnits="userSpaceOnUse" color-interpolation-filters="sRGB">
<feFlood flood-opacity="0" result="BackgroundImageFix"/>
<feColorMatrix in="SourceAlpha" type="matrix" values="0 0 0 0 0 0 0 0 0 0 0 0 0 0 0 0 0 0 127 0" result="hardAlpha"/>
<feOffset dy="4"/>
<feGaussianBlur stdDeviation="17.5"/>
<feComposite in2="hardAlpha" operator="out"/>
<feColorMatrix type="matrix" values="0 0 0 0 0.419608 0 0 0 0 0.305882 0 0 0 0 1 0 0 0 0.07 0"/>
<feBlend mode="normal" in2="BackgroundImageFix" result="effect1_dropShadow_96_371"/>
<feBlend mode="normal" in="SourceGraphic" in2="effect1_dropShadow_96_371" result="shape"/>
</filter>
</defs>
</svg>
