<svg width="1280" height="584" viewBox="0 0 1280 584" fill="none" xmlns="http://www.w3.org/2000/svg">
<rect width="1440" height="554" transform="translate(-144 30)" fill="#0A151A"/>
<g opacity="0.5" filter="url(#filter0_f_127_86)">
<circle cx="16.5001" cy="586.5" r="176.5" fill="#D2F801" fill-opacity="0.34"/>
</g>
<g opacity="0.12" clip-path="url(#clip0_127_86)">
<mask id="mask0_127_86" style="mask-type:alpha" maskUnits="userSpaceOnUse" x="-172" y="0" width="1498" height="1498">
<rect width="1497.02" height="1244.4" transform="translate(-171.502 0.557617)" fill="url(#paint0_radial_127_86)"/>
</mask>
<g mask="url(#mask0_127_86)">
<g clip-path="url(#clip1_127_86)">
<mask id="path-4-inside-1_127_86" fill="white">
<path d="M-21.7998 0.557617H78.0016V100.359H-21.7998V0.557617Z"/>
</mask>
<path d="M78.0016 100.359V101.399H79.0412V100.359H78.0016ZM78.0016 0.557617H76.962V100.359H78.0016H79.0412V0.557617H78.0016ZM78.0016 100.359V99.3194H-21.7998V100.359V101.399H78.0016V100.359Z" fill="#D0D5DD" fill-opacity="0.32" mask="url(#path-4-inside-1_127_86)"/>
<mask id="path-6-inside-2_127_86" fill="white">
<path d="M78.0015 0.557617H177.803V100.359H78.0015V0.557617Z"/>
</mask>
<path d="M177.803 100.359V101.399H178.842V100.359H177.803ZM177.803 0.557617H176.763V100.359H177.803H178.842V0.557617H177.803ZM177.803 100.359V99.3194H78.0015V100.359V101.399H177.803V100.359Z" fill="#D0D5DD" fill-opacity="0.32" mask="url(#path-6-inside-2_127_86)"/>
<mask id="path-8-inside-3_127_86" fill="white">
<path d="M177.803 0.557617H277.604V100.359H177.803V0.557617Z"/>
</mask>
<path d="M277.604 100.359V101.399H278.644V100.359H277.604ZM277.604 0.557617H276.565V100.359H277.604H278.644V0.557617H277.604ZM277.604 100.359V99.3194H177.803V100.359V101.399H277.604V100.359Z" fill="#D0D5DD" fill-opacity="0.32" mask="url(#path-8-inside-3_127_86)"/>
<mask id="path-10-inside-4_127_86" fill="white">
<path d="M277.604 0.557617H377.406V100.359H277.604V0.557617Z"/>
</mask>
<path d="M377.406 100.359V101.399H378.445V100.359H377.406ZM377.406 0.557617H376.366V100.359H377.406H378.445V0.557617H377.406ZM377.406 100.359V99.3194H277.604V100.359V101.399H377.406V100.359Z" fill="#D0D5DD" fill-opacity="0.32" mask="url(#path-10-inside-4_127_86)"/>
<mask id="path-12-inside-5_127_86" fill="white">
<path d="M377.406 0.557617H477.207V100.359H377.406V0.557617Z"/>
</mask>
<path d="M477.207 100.359V101.399H478.247V100.359H477.207ZM477.207 0.557617H476.168V100.359H477.207H478.247V0.557617H477.207ZM477.207 100.359V99.3194H377.406V100.359V101.399H477.207V100.359Z" fill="#D0D5DD" fill-opacity="0.32" mask="url(#path-12-inside-5_127_86)"/>
<mask id="path-14-inside-6_127_86" fill="white">
<path d="M477.207 0.557617H577.008V100.359H477.207V0.557617Z"/>
</mask>
<path d="M577.008 100.359V101.399H578.048V100.359H577.008ZM577.008 0.557617H575.969V100.359H577.008H578.048V0.557617H577.008ZM577.008 100.359V99.3194H477.207V100.359V101.399H577.008V100.359Z" fill="#D0D5DD" fill-opacity="0.32" mask="url(#path-14-inside-6_127_86)"/>
<mask id="path-16-inside-7_127_86" fill="white">
<path d="M577.008 0.557617H676.81V100.359H577.008V0.557617Z"/>
</mask>
<path d="M676.81 100.359V101.399H677.849V100.359H676.81ZM676.81 0.557617H675.77V100.359H676.81H677.849V0.557617H676.81ZM676.81 100.359V99.3194H577.008V100.359V101.399H676.81V100.359Z" fill="#D0D5DD" fill-opacity="0.32" mask="url(#path-16-inside-7_127_86)"/>
<mask id="path-18-inside-8_127_86" fill="white">
<path d="M676.81 0.557617H776.611V100.359H676.81V0.557617Z"/>
</mask>
<path d="M776.611 100.359V101.399H777.651V100.359H776.611ZM776.611 0.557617H775.571V100.359H776.611H777.651V0.557617H776.611ZM776.611 100.359V99.3194H676.81V100.359V101.399H776.611V100.359Z" fill="#D0D5DD" fill-opacity="0.32" mask="url(#path-18-inside-8_127_86)"/>
<mask id="path-20-inside-9_127_86" fill="white">
<path d="M776.611 0.557617H876.412V100.359H776.611V0.557617Z"/>
</mask>
<path d="M876.412 100.359V101.399H877.452V100.359H876.412ZM876.412 0.557617H875.373V100.359H876.412H877.452V0.557617H876.412ZM876.412 100.359V99.3194H776.611V100.359V101.399H876.412V100.359Z" fill="#D0D5DD" fill-opacity="0.32" mask="url(#path-20-inside-9_127_86)"/>
<mask id="path-22-inside-10_127_86" fill="white">
<path d="M876.413 0.557617H976.214V100.359H876.413V0.557617Z"/>
</mask>
<path d="M976.214 100.359V101.399H977.254V100.359H976.214ZM976.214 0.557617H975.174V100.359H976.214H977.254V0.557617H976.214ZM976.214 100.359V99.3194H876.413V100.359V101.399H976.214V100.359Z" fill="#D0D5DD" fill-opacity="0.32" mask="url(#path-22-inside-10_127_86)"/>
<mask id="path-24-inside-11_127_86" fill="white">
<path d="M976.214 0.557617H1076.02V100.359H976.214V0.557617Z"/>
</mask>
<path d="M1076.02 100.359V101.399H1077.05V100.359H1076.02ZM1076.02 0.557617H1074.98V100.359H1076.02H1077.05V0.557617H1076.02ZM1076.02 100.359V99.3194H976.214V100.359V101.399H1076.02V100.359Z" fill="#D0D5DD" fill-opacity="0.32" mask="url(#path-24-inside-11_127_86)"/>
<mask id="path-26-inside-12_127_86" fill="white">
<path d="M1076.02 0.557617H1175.82V100.359H1076.02V0.557617Z"/>
</mask>
<path d="M1175.82 100.359V101.399H1176.86V100.359H1175.82ZM1175.82 0.557617H1174.78V100.359H1175.82H1176.86V0.557617H1175.82ZM1175.82 100.359V99.3194H1076.02V100.359V101.399H1175.82V100.359Z" fill="#D0D5DD" fill-opacity="0.32" mask="url(#path-26-inside-12_127_86)"/>
<mask id="path-28-inside-13_127_86" fill="white">
<path d="M1175.82 0.557617H1275.62V100.359H1175.82V0.557617Z"/>
</mask>
<path d="M1275.62 100.359V101.399H1276.66V100.359H1275.62ZM1275.62 0.557617H1274.58V100.359H1275.62H1276.66V0.557617H1275.62ZM1275.62 100.359V99.3194H1175.82V100.359V101.399H1275.62V100.359Z" fill="#D0D5DD" fill-opacity="0.32" mask="url(#path-28-inside-13_127_86)"/>
<mask id="path-30-inside-14_127_86" fill="white">
<path d="M1275.62 0.557617H1375.42V100.359H1275.62V0.557617Z"/>
</mask>
<path d="M1375.42 100.359V101.399H1376.46V100.359H1375.42ZM1375.42 0.557617H1374.38V100.359H1375.42H1376.46V0.557617H1375.42ZM1375.42 100.359V99.3194H1275.62V100.359V101.399H1375.42V100.359Z" fill="#D0D5DD" fill-opacity="0.32" mask="url(#path-30-inside-14_127_86)"/>
<mask id="path-32-inside-15_127_86" fill="white">
<path d="M-21.7998 100.359H78.0016V200.161H-21.7998V100.359Z"/>
</mask>
<path d="M78.0016 200.161V201.2H79.0412V200.161H78.0016ZM78.0016 100.359H76.962V200.161H78.0016H79.0412V100.359H78.0016ZM78.0016 200.161V199.121H-21.7998V200.161V201.2H78.0016V200.161Z" fill="#D0D5DD" fill-opacity="0.32" mask="url(#path-32-inside-15_127_86)"/>
<mask id="path-34-inside-16_127_86" fill="white">
<path d="M78.0015 100.359H177.803V200.161H78.0015V100.359Z"/>
</mask>
<path d="M78.0015 100.359H177.803V200.161H78.0015V100.359Z" fill="#F2F4F7" fill-opacity="0.1"/>
<path d="M177.803 200.161V201.2H178.842V200.161H177.803ZM177.803 100.359H176.763V200.161H177.803H178.842V100.359H177.803ZM177.803 200.161V199.121H78.0015V200.161V201.2H177.803V200.161Z" fill="#D0D5DD" fill-opacity="0.32" mask="url(#path-34-inside-16_127_86)"/>
<mask id="path-36-inside-17_127_86" fill="white">
<path d="M177.803 100.359H277.604V200.161H177.803V100.359Z"/>
</mask>
<path d="M277.604 200.161V201.2H278.644V200.161H277.604ZM277.604 100.359H276.565V200.161H277.604H278.644V100.359H277.604ZM277.604 200.161V199.121H177.803V200.161V201.2H277.604V200.161Z" fill="#D0D5DD" fill-opacity="0.32" mask="url(#path-36-inside-17_127_86)"/>
<mask id="path-38-inside-18_127_86" fill="white">
<path d="M277.604 100.359H377.406V200.161H277.604V100.359Z"/>
</mask>
<path d="M377.406 200.161V201.2H378.445V200.161H377.406ZM377.406 100.359H376.366V200.161H377.406H378.445V100.359H377.406ZM377.406 200.161V199.121H277.604V200.161V201.2H377.406V200.161Z" fill="#D0D5DD" fill-opacity="0.32" mask="url(#path-38-inside-18_127_86)"/>
<mask id="path-40-inside-19_127_86" fill="white">
<path d="M377.406 100.359H477.207V200.161H377.406V100.359Z"/>
</mask>
<path d="M477.207 200.161V201.2H478.247V200.161H477.207ZM477.207 100.359H476.168V200.161H477.207H478.247V100.359H477.207ZM477.207 200.161V199.121H377.406V200.161V201.2H477.207V200.161Z" fill="#D0D5DD" fill-opacity="0.32" mask="url(#path-40-inside-19_127_86)"/>
<mask id="path-42-inside-20_127_86" fill="white">
<path d="M477.207 100.359H577.008V200.161H477.207V100.359Z"/>
</mask>
<path d="M577.008 200.161V201.2H578.048V200.161H577.008ZM577.008 100.359H575.969V200.161H577.008H578.048V100.359H577.008ZM577.008 200.161V199.121H477.207V200.161V201.2H577.008V200.161Z" fill="#D0D5DD" fill-opacity="0.32" mask="url(#path-42-inside-20_127_86)"/>
<mask id="path-44-inside-21_127_86" fill="white">
<path d="M577.008 100.359H676.81V200.161H577.008V100.359Z"/>
</mask>
<path d="M676.81 200.161V201.2H677.849V200.161H676.81ZM676.81 100.359H675.77V200.161H676.81H677.849V100.359H676.81ZM676.81 200.161V199.121H577.008V200.161V201.2H676.81V200.161Z" fill="#D0D5DD" fill-opacity="0.32" mask="url(#path-44-inside-21_127_86)"/>
<mask id="path-46-inside-22_127_86" fill="white">
<path d="M676.81 100.359H776.611V200.161H676.81V100.359Z"/>
</mask>
<path d="M776.611 200.161V201.2H777.651V200.161H776.611ZM776.611 100.359H775.571V200.161H776.611H777.651V100.359H776.611ZM776.611 200.161V199.121H676.81V200.161V201.2H776.611V200.161Z" fill="#D0D5DD" fill-opacity="0.32" mask="url(#path-46-inside-22_127_86)"/>
<mask id="path-48-inside-23_127_86" fill="white">
<path d="M776.611 100.359H876.412V200.161H776.611V100.359Z"/>
</mask>
<path d="M876.412 200.161V201.2H877.452V200.161H876.412ZM876.412 100.359H875.373V200.161H876.412H877.452V100.359H876.412ZM876.412 200.161V199.121H776.611V200.161V201.2H876.412V200.161Z" fill="#D0D5DD" fill-opacity="0.32" mask="url(#path-48-inside-23_127_86)"/>
<mask id="path-50-inside-24_127_86" fill="white">
<path d="M876.413 100.359H976.214V200.161H876.413V100.359Z"/>
</mask>
<path d="M976.214 200.161V201.2H977.254V200.161H976.214ZM976.214 100.359H975.174V200.161H976.214H977.254V100.359H976.214ZM976.214 200.161V199.121H876.413V200.161V201.2H976.214V200.161Z" fill="#D0D5DD" fill-opacity="0.32" mask="url(#path-50-inside-24_127_86)"/>
<mask id="path-52-inside-25_127_86" fill="white">
<path d="M976.214 100.359H1076.02V200.161H976.214V100.359Z"/>
</mask>
<path d="M976.214 100.359H1076.02V200.161H976.214V100.359Z" fill="#F2F4F7" fill-opacity="0.1"/>
<path d="M1076.02 200.161V201.2H1077.05V200.161H1076.02ZM1076.02 100.359H1074.98V200.161H1076.02H1077.05V100.359H1076.02ZM1076.02 200.161V199.121H976.214V200.161V201.2H1076.02V200.161Z" fill="#D0D5DD" fill-opacity="0.32" mask="url(#path-52-inside-25_127_86)"/>
<mask id="path-54-inside-26_127_86" fill="white">
<path d="M1076.02 100.359H1175.82V200.161H1076.02V100.359Z"/>
</mask>
<path d="M1175.82 200.161V201.2H1176.86V200.161H1175.82ZM1175.82 100.359H1174.78V200.161H1175.82H1176.86V100.359H1175.82ZM1175.82 200.161V199.121H1076.02V200.161V201.2H1175.82V200.161Z" fill="#D0D5DD" fill-opacity="0.32" mask="url(#path-54-inside-26_127_86)"/>
<mask id="path-56-inside-27_127_86" fill="white">
<path d="M1175.82 100.359H1275.62V200.161H1175.82V100.359Z"/>
</mask>
<path d="M1275.62 200.161V201.2H1276.66V200.161H1275.62ZM1275.62 100.359H1274.58V200.161H1275.62H1276.66V100.359H1275.62ZM1275.62 200.161V199.121H1175.82V200.161V201.2H1275.62V200.161Z" fill="#D0D5DD" fill-opacity="0.32" mask="url(#path-56-inside-27_127_86)"/>
<mask id="path-58-inside-28_127_86" fill="white">
<path d="M1275.62 100.359H1375.42V200.161H1275.62V100.359Z"/>
</mask>
<path d="M1375.42 200.161V201.2H1376.46V200.161H1375.42ZM1375.42 100.359H1374.38V200.161H1375.42H1376.46V100.359H1375.42ZM1375.42 200.161V199.121H1275.62V200.161V201.2H1375.42V200.161Z" fill="#D0D5DD" fill-opacity="0.32" mask="url(#path-58-inside-28_127_86)"/>
<mask id="path-60-inside-29_127_86" fill="white">
<path d="M-21.7998 200.16H78.0016V299.962H-21.7998V200.16Z"/>
</mask>
<path d="M78.0016 299.962V301.001H79.0412V299.962H78.0016ZM78.0016 200.16H76.962V299.962H78.0016H79.0412V200.16H78.0016ZM78.0016 299.962V298.922H-21.7998V299.962V301.001H78.0016V299.962Z" fill="#D0D5DD" fill-opacity="0.32" mask="url(#path-60-inside-29_127_86)"/>
<mask id="path-62-inside-30_127_86" fill="white">
<path d="M78.0015 200.16H177.803V299.962H78.0015V200.16Z"/>
</mask>
<path d="M177.803 299.962V301.001H178.842V299.962H177.803ZM177.803 200.16H176.763V299.962H177.803H178.842V200.16H177.803ZM177.803 299.962V298.922H78.0015V299.962V301.001H177.803V299.962Z" fill="#D0D5DD" fill-opacity="0.32" mask="url(#path-62-inside-30_127_86)"/>
<mask id="path-64-inside-31_127_86" fill="white">
<path d="M177.803 200.16H277.604V299.962H177.803V200.16Z"/>
</mask>
<path d="M277.604 299.962V301.001H278.644V299.962H277.604ZM277.604 200.16H276.565V299.962H277.604H278.644V200.16H277.604ZM277.604 299.962V298.922H177.803V299.962V301.001H277.604V299.962Z" fill="#D0D5DD" fill-opacity="0.32" mask="url(#path-64-inside-31_127_86)"/>
<mask id="path-66-inside-32_127_86" fill="white">
<path d="M277.604 200.16H377.406V299.962H277.604V200.16Z"/>
</mask>
<path d="M277.604 200.16H377.406V299.962H277.604V200.16Z" fill="#F2F4F7" fill-opacity="0.1"/>
<path d="M377.406 299.962V301.001H378.445V299.962H377.406ZM377.406 200.16H376.366V299.962H377.406H378.445V200.16H377.406ZM377.406 299.962V298.922H277.604V299.962V301.001H377.406V299.962Z" fill="#D0D5DD" fill-opacity="0.32" mask="url(#path-66-inside-32_127_86)"/>
<mask id="path-68-inside-33_127_86" fill="white">
<path d="M377.406 200.16H477.207V299.962H377.406V200.16Z"/>
</mask>
<path d="M477.207 299.962V301.001H478.247V299.962H477.207ZM477.207 200.16H476.168V299.962H477.207H478.247V200.16H477.207ZM477.207 299.962V298.922H377.406V299.962V301.001H477.207V299.962Z" fill="#D0D5DD" fill-opacity="0.32" mask="url(#path-68-inside-33_127_86)"/>
<mask id="path-70-inside-34_127_86" fill="white">
<path d="M477.207 200.16H577.008V299.962H477.207V200.16Z"/>
</mask>
<path d="M577.008 299.962V301.001H578.048V299.962H577.008ZM577.008 200.16H575.969V299.962H577.008H578.048V200.16H577.008ZM577.008 299.962V298.922H477.207V299.962V301.001H577.008V299.962Z" fill="#D0D5DD" fill-opacity="0.32" mask="url(#path-70-inside-34_127_86)"/>
<mask id="path-72-inside-35_127_86" fill="white">
<path d="M577.008 200.16H676.81V299.962H577.008V200.16Z"/>
</mask>
<path d="M676.81 299.962V301.001H677.849V299.962H676.81ZM676.81 200.16H675.77V299.962H676.81H677.849V200.16H676.81ZM676.81 299.962V298.922H577.008V299.962V301.001H676.81V299.962Z" fill="#D0D5DD" fill-opacity="0.32" mask="url(#path-72-inside-35_127_86)"/>
<mask id="path-74-inside-36_127_86" fill="white">
<path d="M676.81 200.16H776.611V299.962H676.81V200.16Z"/>
</mask>
<path d="M676.81 200.16H776.611V299.962H676.81V200.16Z" fill="#F2F4F7" fill-opacity="0.1"/>
<path d="M776.611 299.962V301.001H777.651V299.962H776.611ZM776.611 200.16H775.571V299.962H776.611H777.651V200.16H776.611ZM776.611 299.962V298.922H676.81V299.962V301.001H776.611V299.962Z" fill="#D0D5DD" fill-opacity="0.32" mask="url(#path-74-inside-36_127_86)"/>
<mask id="path-76-inside-37_127_86" fill="white">
<path d="M776.611 200.16H876.412V299.962H776.611V200.16Z"/>
</mask>
<path d="M876.412 299.962V301.001H877.452V299.962H876.412ZM876.412 200.16H875.373V299.962H876.412H877.452V200.16H876.412ZM876.412 299.962V298.922H776.611V299.962V301.001H876.412V299.962Z" fill="#D0D5DD" fill-opacity="0.32" mask="url(#path-76-inside-37_127_86)"/>
<mask id="path-78-inside-38_127_86" fill="white">
<path d="M876.413 200.16H976.214V299.962H876.413V200.16Z"/>
</mask>
<path d="M976.214 299.962V301.001H977.254V299.962H976.214ZM976.214 200.16H975.174V299.962H976.214H977.254V200.16H976.214ZM976.214 299.962V298.922H876.413V299.962V301.001H976.214V299.962Z" fill="#D0D5DD" fill-opacity="0.32" mask="url(#path-78-inside-38_127_86)"/>
<mask id="path-80-inside-39_127_86" fill="white">
<path d="M976.214 200.16H1076.02V299.962H976.214V200.16Z"/>
</mask>
<path d="M1076.02 299.962V301.001H1077.05V299.962H1076.02ZM1076.02 200.16H1074.98V299.962H1076.02H1077.05V200.16H1076.02ZM1076.02 299.962V298.922H976.214V299.962V301.001H1076.02V299.962Z" fill="#D0D5DD" fill-opacity="0.32" mask="url(#path-80-inside-39_127_86)"/>
<mask id="path-82-inside-40_127_86" fill="white">
<path d="M1076.02 200.16H1175.82V299.962H1076.02V200.16Z"/>
</mask>
<path d="M1175.82 299.962V301.001H1176.86V299.962H1175.82ZM1175.82 200.16H1174.78V299.962H1175.82H1176.86V200.16H1175.82ZM1175.82 299.962V298.922H1076.02V299.962V301.001H1175.82V299.962Z" fill="#D0D5DD" fill-opacity="0.32" mask="url(#path-82-inside-40_127_86)"/>
<mask id="path-84-inside-41_127_86" fill="white">
<path d="M1175.82 200.16H1275.62V299.962H1175.82V200.16Z"/>
</mask>
<path d="M1275.62 299.962V301.001H1276.66V299.962H1275.62ZM1275.62 200.16H1274.58V299.962H1275.62H1276.66V200.16H1275.62ZM1275.62 299.962V298.922H1175.82V299.962V301.001H1275.62V299.962Z" fill="#D0D5DD" fill-opacity="0.32" mask="url(#path-84-inside-41_127_86)"/>
<mask id="path-86-inside-42_127_86" fill="white">
<path d="M1275.62 200.16H1375.42V299.962H1275.62V200.16Z"/>
</mask>
<path d="M1375.42 299.962V301.001H1376.46V299.962H1375.42ZM1375.42 200.16H1374.38V299.962H1375.42H1376.46V200.16H1375.42ZM1375.42 299.962V298.922H1275.62V299.962V301.001H1375.42V299.962Z" fill="#D0D5DD" fill-opacity="0.32" mask="url(#path-86-inside-42_127_86)"/>
<mask id="path-88-inside-43_127_86" fill="white">
<path d="M-21.7998 299.962H78.0016V399.763H-21.7998V299.962Z"/>
</mask>
<path d="M78.0016 399.763V400.803H79.0412V399.763H78.0016ZM78.0016 299.962H76.962V399.763H78.0016H79.0412V299.962H78.0016ZM78.0016 399.763V398.724H-21.7998V399.763V400.803H78.0016V399.763Z" fill="#D0D5DD" fill-opacity="0.32" mask="url(#path-88-inside-43_127_86)"/>
<mask id="path-90-inside-44_127_86" fill="white">
<path d="M78.0015 299.962H177.803V399.763H78.0015V299.962Z"/>
</mask>
<path d="M177.803 399.763V400.803H178.842V399.763H177.803ZM177.803 299.962H176.763V399.763H177.803H178.842V299.962H177.803ZM177.803 399.763V398.724H78.0015V399.763V400.803H177.803V399.763Z" fill="#D0D5DD" fill-opacity="0.32" mask="url(#path-90-inside-44_127_86)"/>
<mask id="path-92-inside-45_127_86" fill="white">
<path d="M177.803 299.962H277.604V399.763H177.803V299.962Z"/>
</mask>
<path d="M277.604 399.763V400.803H278.644V399.763H277.604ZM277.604 299.962H276.565V399.763H277.604H278.644V299.962H277.604ZM277.604 399.763V398.724H177.803V399.763V400.803H277.604V399.763Z" fill="#D0D5DD" fill-opacity="0.32" mask="url(#path-92-inside-45_127_86)"/>
<mask id="path-94-inside-46_127_86" fill="white">
<path d="M277.604 299.962H377.406V399.763H277.604V299.962Z"/>
</mask>
<path d="M377.406 399.763V400.803H378.445V399.763H377.406ZM377.406 299.962H376.366V399.763H377.406H378.445V299.962H377.406ZM377.406 399.763V398.724H277.604V399.763V400.803H377.406V399.763Z" fill="#D0D5DD" fill-opacity="0.32" mask="url(#path-94-inside-46_127_86)"/>
<mask id="path-96-inside-47_127_86" fill="white">
<path d="M377.406 299.962H477.207V399.763H377.406V299.962Z"/>
</mask>
<path d="M477.207 399.763V400.803H478.247V399.763H477.207ZM477.207 299.962H476.168V399.763H477.207H478.247V299.962H477.207ZM477.207 399.763V398.724H377.406V399.763V400.803H477.207V399.763Z" fill="#D0D5DD" fill-opacity="0.32" mask="url(#path-96-inside-47_127_86)"/>
<mask id="path-98-inside-48_127_86" fill="white">
<path d="M477.207 299.962H577.008V399.763H477.207V299.962Z"/>
</mask>
<path d="M577.008 399.763V400.803H578.048V399.763H577.008ZM577.008 299.962H575.969V399.763H577.008H578.048V299.962H577.008ZM577.008 399.763V398.724H477.207V399.763V400.803H577.008V399.763Z" fill="#D0D5DD" fill-opacity="0.32" mask="url(#path-98-inside-48_127_86)"/>
<mask id="path-100-inside-49_127_86" fill="white">
<path d="M577.008 299.962H676.81V399.763H577.008V299.962Z"/>
</mask>
<path d="M676.81 399.763V400.803H677.849V399.763H676.81ZM676.81 299.962H675.77V399.763H676.81H677.849V299.962H676.81ZM676.81 399.763V398.724H577.008V399.763V400.803H676.81V399.763Z" fill="#D0D5DD" fill-opacity="0.32" mask="url(#path-100-inside-49_127_86)"/>
<mask id="path-102-inside-50_127_86" fill="white">
<path d="M676.81 299.962H776.611V399.763H676.81V299.962Z"/>
</mask>
<path d="M776.611 399.763V400.803H777.651V399.763H776.611ZM776.611 299.962H775.571V399.763H776.611H777.651V299.962H776.611ZM776.611 399.763V398.724H676.81V399.763V400.803H776.611V399.763Z" fill="#D0D5DD" fill-opacity="0.32" mask="url(#path-102-inside-50_127_86)"/>
<mask id="path-104-inside-51_127_86" fill="white">
<path d="M776.611 299.962H876.412V399.763H776.611V299.962Z"/>
</mask>
<path d="M876.412 399.763V400.803H877.452V399.763H876.412ZM876.412 299.962H875.373V399.763H876.412H877.452V299.962H876.412ZM876.412 399.763V398.724H776.611V399.763V400.803H876.412V399.763Z" fill="#D0D5DD" fill-opacity="0.32" mask="url(#path-104-inside-51_127_86)"/>
<mask id="path-106-inside-52_127_86" fill="white">
<path d="M876.413 299.962H976.214V399.763H876.413V299.962Z"/>
</mask>
<path d="M976.214 399.763V400.803H977.254V399.763H976.214ZM976.214 299.962H975.174V399.763H976.214H977.254V299.962H976.214ZM976.214 399.763V398.724H876.413V399.763V400.803H976.214V399.763Z" fill="#D0D5DD" fill-opacity="0.32" mask="url(#path-106-inside-52_127_86)"/>
<mask id="path-108-inside-53_127_86" fill="white">
<path d="M976.214 299.962H1076.02V399.763H976.214V299.962Z"/>
</mask>
<path d="M976.214 299.962H1076.02V399.763H976.214V299.962Z" fill="#F2F4F7" fill-opacity="0.1"/>
<path d="M1076.02 399.763V400.803H1077.05V399.763H1076.02ZM1076.02 299.962H1074.98V399.763H1076.02H1077.05V299.962H1076.02ZM1076.02 399.763V398.724H976.214V399.763V400.803H1076.02V399.763Z" fill="#D0D5DD" fill-opacity="0.32" mask="url(#path-108-inside-53_127_86)"/>
<mask id="path-110-inside-54_127_86" fill="white">
<path d="M1076.02 299.962H1175.82V399.763H1076.02V299.962Z"/>
</mask>
<path d="M1175.82 399.763V400.803H1176.86V399.763H1175.82ZM1175.82 299.962H1174.78V399.763H1175.82H1176.86V299.962H1175.82ZM1175.82 399.763V398.724H1076.02V399.763V400.803H1175.82V399.763Z" fill="#D0D5DD" fill-opacity="0.32" mask="url(#path-110-inside-54_127_86)"/>
<mask id="path-112-inside-55_127_86" fill="white">
<path d="M1175.82 299.962H1275.62V399.763H1175.82V299.962Z"/>
</mask>
<path d="M1275.62 399.763V400.803H1276.66V399.763H1275.62ZM1275.62 299.962H1274.58V399.763H1275.62H1276.66V299.962H1275.62ZM1275.62 399.763V398.724H1175.82V399.763V400.803H1275.62V399.763Z" fill="#D0D5DD" fill-opacity="0.32" mask="url(#path-112-inside-55_127_86)"/>
<mask id="path-114-inside-56_127_86" fill="white">
<path d="M1275.62 299.962H1375.42V399.763H1275.62V299.962Z"/>
</mask>
<path d="M1375.42 399.763V400.803H1376.46V399.763H1375.42ZM1375.42 299.962H1374.38V399.763H1375.42H1376.46V299.962H1375.42ZM1375.42 399.763V398.724H1275.62V399.763V400.803H1375.42V399.763Z" fill="#D0D5DD" fill-opacity="0.32" mask="url(#path-114-inside-56_127_86)"/>
<mask id="path-116-inside-57_127_86" fill="white">
<path d="M-21.7998 399.763H78.0016V499.564H-21.7998V399.763Z"/>
</mask>
<path d="M78.0016 499.564V500.604H79.0412V499.564H78.0016ZM78.0016 399.763H76.962V499.564H78.0016H79.0412V399.763H78.0016ZM78.0016 499.564V498.524H-21.7998V499.564V500.604H78.0016V499.564Z" fill="#D0D5DD" fill-opacity="0.32" mask="url(#path-116-inside-57_127_86)"/>
<mask id="path-118-inside-58_127_86" fill="white">
<path d="M78.0015 399.763H177.803V499.564H78.0015V399.763Z"/>
</mask>
<path d="M177.803 499.564V500.604H178.842V499.564H177.803ZM177.803 399.763H176.763V499.564H177.803H178.842V399.763H177.803ZM177.803 499.564V498.524H78.0015V499.564V500.604H177.803V499.564Z" fill="#D0D5DD" fill-opacity="0.32" mask="url(#path-118-inside-58_127_86)"/>
<mask id="path-120-inside-59_127_86" fill="white">
<path d="M177.803 399.763H277.604V499.564H177.803V399.763Z"/>
</mask>
<path d="M277.604 499.564V500.604H278.644V499.564H277.604ZM277.604 399.763H276.565V499.564H277.604H278.644V399.763H277.604ZM277.604 499.564V498.524H177.803V499.564V500.604H277.604V499.564Z" fill="#D0D5DD" fill-opacity="0.32" mask="url(#path-120-inside-59_127_86)"/>
<mask id="path-122-inside-60_127_86" fill="white">
<path d="M277.604 399.763H377.406V499.564H277.604V399.763Z"/>
</mask>
<path d="M377.406 499.564V500.604H378.445V499.564H377.406ZM377.406 399.763H376.366V499.564H377.406H378.445V399.763H377.406ZM377.406 499.564V498.524H277.604V499.564V500.604H377.406V499.564Z" fill="#D0D5DD" fill-opacity="0.32" mask="url(#path-122-inside-60_127_86)"/>
<mask id="path-124-inside-61_127_86" fill="white">
<path d="M377.406 399.763H477.207V499.564H377.406V399.763Z"/>
</mask>
<path d="M377.406 399.763H477.207V499.564H377.406V399.763Z" fill="#F2F4F7" fill-opacity="0.1"/>
<path d="M477.207 499.564V500.604H478.247V499.564H477.207ZM477.207 399.763H476.168V499.564H477.207H478.247V399.763H477.207ZM477.207 499.564V498.524H377.406V499.564V500.604H477.207V499.564Z" fill="#D0D5DD" fill-opacity="0.32" mask="url(#path-124-inside-61_127_86)"/>
<mask id="path-126-inside-62_127_86" fill="white">
<path d="M477.207 399.763H577.008V499.564H477.207V399.763Z"/>
</mask>
<path d="M577.008 499.564V500.604H578.048V499.564H577.008ZM577.008 399.763H575.969V499.564H577.008H578.048V399.763H577.008ZM577.008 499.564V498.524H477.207V499.564V500.604H577.008V499.564Z" fill="#D0D5DD" fill-opacity="0.32" mask="url(#path-126-inside-62_127_86)"/>
<mask id="path-128-inside-63_127_86" fill="white">
<path d="M577.008 399.763H676.81V499.564H577.008V399.763Z"/>
</mask>
<path d="M676.81 499.564V500.604H677.849V499.564H676.81ZM676.81 399.763H675.77V499.564H676.81H677.849V399.763H676.81ZM676.81 499.564V498.524H577.008V499.564V500.604H676.81V499.564Z" fill="#D0D5DD" fill-opacity="0.32" mask="url(#path-128-inside-63_127_86)"/>
<mask id="path-130-inside-64_127_86" fill="white">
<path d="M676.81 399.763H776.611V499.564H676.81V399.763Z"/>
</mask>
<path d="M776.611 499.564V500.604H777.651V499.564H776.611ZM776.611 399.763H775.571V499.564H776.611H777.651V399.763H776.611ZM776.611 499.564V498.524H676.81V499.564V500.604H776.611V499.564Z" fill="#D0D5DD" fill-opacity="0.32" mask="url(#path-130-inside-64_127_86)"/>
<mask id="path-132-inside-65_127_86" fill="white">
<path d="M776.611 399.763H876.412V499.564H776.611V399.763Z"/>
</mask>
<path d="M876.412 499.564V500.604H877.452V499.564H876.412ZM876.412 399.763H875.373V499.564H876.412H877.452V399.763H876.412ZM876.412 499.564V498.524H776.611V499.564V500.604H876.412V499.564Z" fill="#D0D5DD" fill-opacity="0.32" mask="url(#path-132-inside-65_127_86)"/>
<mask id="path-134-inside-66_127_86" fill="white">
<path d="M876.413 399.763H976.214V499.564H876.413V399.763Z"/>
</mask>
<path d="M976.214 499.564V500.604H977.254V499.564H976.214ZM976.214 399.763H975.174V499.564H976.214H977.254V399.763H976.214ZM976.214 499.564V498.524H876.413V499.564V500.604H976.214V499.564Z" fill="#D0D5DD" fill-opacity="0.32" mask="url(#path-134-inside-66_127_86)"/>
<mask id="path-136-inside-67_127_86" fill="white">
<path d="M976.214 399.763H1076.02V499.564H976.214V399.763Z"/>
</mask>
<path d="M1076.02 499.564V500.604H1077.05V499.564H1076.02ZM1076.02 399.763H1074.98V499.564H1076.02H1077.05V399.763H1076.02ZM1076.02 499.564V498.524H976.214V499.564V500.604H1076.02V499.564Z" fill="#D0D5DD" fill-opacity="0.32" mask="url(#path-136-inside-67_127_86)"/>
<mask id="path-138-inside-68_127_86" fill="white">
<path d="M1076.02 399.763H1175.82V499.564H1076.02V399.763Z"/>
</mask>
<path d="M1175.82 499.564V500.604H1176.86V499.564H1175.82ZM1175.82 399.763H1174.78V499.564H1175.82H1176.86V399.763H1175.82ZM1175.82 499.564V498.524H1076.02V499.564V500.604H1175.82V499.564Z" fill="#D0D5DD" fill-opacity="0.32" mask="url(#path-138-inside-68_127_86)"/>
<mask id="path-140-inside-69_127_86" fill="white">
<path d="M1175.82 399.763H1275.62V499.564H1175.82V399.763Z"/>
</mask>
<path d="M1275.62 499.564V500.604H1276.66V499.564H1275.62ZM1275.62 399.763H1274.58V499.564H1275.62H1276.66V399.763H1275.62ZM1275.62 499.564V498.524H1175.82V499.564V500.604H1275.62V499.564Z" fill="#D0D5DD" fill-opacity="0.32" mask="url(#path-140-inside-69_127_86)"/>
<mask id="path-142-inside-70_127_86" fill="white">
<path d="M1275.62 399.763H1375.42V499.564H1275.62V399.763Z"/>
</mask>
<path d="M1375.42 499.564V500.604H1376.46V499.564H1375.42ZM1375.42 399.763H1374.38V499.564H1375.42H1376.46V399.763H1375.42ZM1375.42 499.564V498.524H1275.62V499.564V500.604H1375.42V499.564Z" fill="#D0D5DD" fill-opacity="0.32" mask="url(#path-142-inside-70_127_86)"/>
<mask id="path-144-inside-71_127_86" fill="white">
<path d="M-21.7998 499.564H78.0016V599.366H-21.7998V499.564Z"/>
</mask>
<path d="M78.0016 599.366V600.405H79.0412V599.366H78.0016ZM78.0016 499.564H76.962V599.366H78.0016H79.0412V499.564H78.0016ZM78.0016 599.366V598.326H-21.7998V599.366V600.405H78.0016V599.366Z" fill="#D0D5DD" fill-opacity="0.32" mask="url(#path-144-inside-71_127_86)"/>
<mask id="path-146-inside-72_127_86" fill="white">
<path d="M78.0015 499.564H177.803V599.366H78.0015V499.564Z"/>
</mask>
<path d="M78.0015 499.564H177.803V599.366H78.0015V499.564Z" fill="#F2F4F7" fill-opacity="0.1"/>
<path d="M177.803 599.366V600.405H178.842V599.366H177.803ZM177.803 499.564H176.763V599.366H177.803H178.842V499.564H177.803ZM177.803 599.366V598.326H78.0015V599.366V600.405H177.803V599.366Z" fill="#D0D5DD" fill-opacity="0.32" mask="url(#path-146-inside-72_127_86)"/>
<mask id="path-148-inside-73_127_86" fill="white">
<path d="M177.803 499.564H277.604V599.366H177.803V499.564Z"/>
</mask>
<path d="M277.604 599.366V600.405H278.644V599.366H277.604ZM277.604 499.564H276.565V599.366H277.604H278.644V499.564H277.604ZM277.604 599.366V598.326H177.803V599.366V600.405H277.604V599.366Z" fill="#D0D5DD" fill-opacity="0.32" mask="url(#path-148-inside-73_127_86)"/>
<mask id="path-150-inside-74_127_86" fill="white">
<path d="M277.604 499.564H377.406V599.366H277.604V499.564Z"/>
</mask>
<path d="M377.406 599.366V600.405H378.445V599.366H377.406ZM377.406 499.564H376.366V599.366H377.406H378.445V499.564H377.406ZM377.406 599.366V598.326H277.604V599.366V600.405H377.406V599.366Z" fill="#D0D5DD" fill-opacity="0.32" mask="url(#path-150-inside-74_127_86)"/>
<mask id="path-152-inside-75_127_86" fill="white">
<path d="M377.406 499.564H477.207V599.366H377.406V499.564Z"/>
</mask>
<path d="M477.207 599.366V600.405H478.247V599.366H477.207ZM477.207 499.564H476.168V599.366H477.207H478.247V499.564H477.207ZM477.207 599.366V598.326H377.406V599.366V600.405H477.207V599.366Z" fill="#D0D5DD" fill-opacity="0.32" mask="url(#path-152-inside-75_127_86)"/>
<mask id="path-154-inside-76_127_86" fill="white">
<path d="M477.207 499.564H577.008V599.366H477.207V499.564Z"/>
</mask>
<path d="M577.008 599.366V600.405H578.048V599.366H577.008ZM577.008 499.564H575.969V599.366H577.008H578.048V499.564H577.008ZM577.008 599.366V598.326H477.207V599.366V600.405H577.008V599.366Z" fill="#D0D5DD" fill-opacity="0.32" mask="url(#path-154-inside-76_127_86)"/>
<mask id="path-156-inside-77_127_86" fill="white">
<path d="M577.008 499.564H676.81V599.366H577.008V499.564Z"/>
</mask>
<path d="M676.81 599.366V600.405H677.849V599.366H676.81ZM676.81 499.564H675.77V599.366H676.81H677.849V499.564H676.81ZM676.81 599.366V598.326H577.008V599.366V600.405H676.81V599.366Z" fill="#D0D5DD" fill-opacity="0.32" mask="url(#path-156-inside-77_127_86)"/>
<mask id="path-158-inside-78_127_86" fill="white">
<path d="M676.81 499.564H776.611V599.366H676.81V499.564Z"/>
</mask>
<path d="M676.81 499.564H776.611V599.366H676.81V499.564Z" fill="#F2F4F7" fill-opacity="0.1"/>
<path d="M776.611 599.366V600.405H777.651V599.366H776.611ZM776.611 499.564H775.571V599.366H776.611H777.651V499.564H776.611ZM776.611 599.366V598.326H676.81V599.366V600.405H776.611V599.366Z" fill="#D0D5DD" fill-opacity="0.32" mask="url(#path-158-inside-78_127_86)"/>
<mask id="path-160-inside-79_127_86" fill="white">
<path d="M776.611 499.564H876.412V599.366H776.611V499.564Z"/>
</mask>
<path d="M876.412 599.366V600.405H877.452V599.366H876.412ZM876.412 499.564H875.373V599.366H876.412H877.452V499.564H876.412ZM876.412 599.366V598.326H776.611V599.366V600.405H876.412V599.366Z" fill="#D0D5DD" fill-opacity="0.32" mask="url(#path-160-inside-79_127_86)"/>
<mask id="path-162-inside-80_127_86" fill="white">
<path d="M876.413 499.564H976.214V599.366H876.413V499.564Z"/>
</mask>
<path d="M976.214 599.366V600.405H977.254V599.366H976.214ZM976.214 499.564H975.174V599.366H976.214H977.254V499.564H976.214ZM976.214 599.366V598.326H876.413V599.366V600.405H976.214V599.366Z" fill="#D0D5DD" fill-opacity="0.32" mask="url(#path-162-inside-80_127_86)"/>
<mask id="path-164-inside-81_127_86" fill="white">
<path d="M976.214 499.564H1076.02V599.366H976.214V499.564Z"/>
</mask>
<path d="M1076.02 599.366V600.405H1077.05V599.366H1076.02ZM1076.02 499.564H1074.98V599.366H1076.02H1077.05V499.564H1076.02ZM1076.02 599.366V598.326H976.214V599.366V600.405H1076.02V599.366Z" fill="#D0D5DD" fill-opacity="0.32" mask="url(#path-164-inside-81_127_86)"/>
<mask id="path-166-inside-82_127_86" fill="white">
<path d="M1076.02 499.564H1175.82V599.366H1076.02V499.564Z"/>
</mask>
<path d="M1175.82 599.366V600.405H1176.86V599.366H1175.82ZM1175.82 499.564H1174.78V599.366H1175.82H1176.86V499.564H1175.82ZM1175.82 599.366V598.326H1076.02V599.366V600.405H1175.82V599.366Z" fill="#D0D5DD" fill-opacity="0.32" mask="url(#path-166-inside-82_127_86)"/>
<mask id="path-168-inside-83_127_86" fill="white">
<path d="M1175.82 499.564H1275.62V599.366H1175.82V499.564Z"/>
</mask>
<path d="M1275.62 599.366V600.405H1276.66V599.366H1275.62ZM1275.62 499.564H1274.58V599.366H1275.62H1276.66V499.564H1275.62ZM1275.62 599.366V598.326H1175.82V599.366V600.405H1275.62V599.366Z" fill="#D0D5DD" fill-opacity="0.32" mask="url(#path-168-inside-83_127_86)"/>
<mask id="path-170-inside-84_127_86" fill="white">
<path d="M1275.62 499.564H1375.42V599.366H1275.62V499.564Z"/>
</mask>
<path d="M1375.42 599.366V600.405H1376.46V599.366H1375.42ZM1375.42 499.564H1374.38V599.366H1375.42H1376.46V499.564H1375.42ZM1375.42 599.366V598.326H1275.62V599.366V600.405H1375.42V599.366Z" fill="#D0D5DD" fill-opacity="0.32" mask="url(#path-170-inside-84_127_86)"/>
</g>
<rect x="-420.486" y="1.07742" width="1994.99" height="1495.98" stroke="#D0D5DD" stroke-opacity="0.32" stroke-width="1.0396"/>
</g>
</g>
<defs>
<filter id="filter0_f_127_86" x="-560" y="10" width="1153" height="1153" filterUnits="userSpaceOnUse" color-interpolation-filters="sRGB">
<feFlood flood-opacity="0" result="BackgroundImageFix"/>
<feBlend mode="normal" in="SourceGraphic" in2="BackgroundImageFix" result="shape"/>
<feGaussianBlur stdDeviation="200" result="effect1_foregroundBlur_127_86"/>
</filter>
<radialGradient id="paint0_radial_127_86" cx="0" cy="0" r="1" gradientUnits="userSpaceOnUse" gradientTransform="translate(748.51 -0.000148344) rotate(90) scale(1244.4 781.349)">
<stop/>
<stop offset="0.953125" stop-opacity="0"/>
</radialGradient>
<clipPath id="clip0_127_86">
<rect width="1492.42" height="1020.88" fill="white" transform="translate(-169.423 0.557617)"/>
</clipPath>
<clipPath id="clip1_127_86">
<rect x="-421.005" y="0.557617" width="1996.03" height="1497.02" fill="white"/>
</clipPath>
</defs>
</svg>
