<svg width="1385" height="842" viewBox="0 0 1385 842" fill="none" xmlns="http://www.w3.org/2000/svg">
<g clip-path="url(#clip0_470_239)">
<rect width="1385" height="842" fill="#0F2028"/>
<g opacity="0.5" filter="url(#filter0_f_470_239)">
<circle cx="141.5" cy="904.5" r="176.5" fill="#D2F801" fill-opacity="0.34"/>
</g>
<g opacity="0.5" filter="url(#filter1_f_470_239)">
<circle cx="451.5" cy="394.5" r="176.5" fill="#D2F801" fill-opacity="0.34"/>
</g>
<g opacity="0.5" filter="url(#filter2_f_470_239)">
<circle cx="1289.42" cy="54.9079" r="124.908" fill="#D2F801"/>
</g>
<g opacity="0.5" clip-path="url(#clip1_470_239)">
<mask id="mask0_470_239" style="mask-type:alpha" maskUnits="userSpaceOnUse" x="0" y="99" width="1440" height="1441">
<rect width="1440" height="1197" transform="translate(0 99.0054)" fill="url(#paint0_radial_470_239)"/>
</mask>
<g mask="url(#mask0_470_239)">
<g clip-path="url(#clip2_470_239)">
<mask id="path-6-inside-1_470_239" fill="white">
<path d="M-48 99.0054H48V195.005H-48V99.0054Z"/>
</mask>
<path d="M48 195.005V196.005H49V195.005H48ZM48 99.0054H47V195.005H48H49V99.0054H48ZM48 195.005V194.005H-48V195.005V196.005H48V195.005Z" fill="#D0D5DD" fill-opacity="0.32" mask="url(#path-6-inside-1_470_239)"/>
<mask id="path-8-inside-2_470_239" fill="white">
<path d="M48 99.0054H144V195.005H48V99.0054Z"/>
</mask>
<path d="M144 195.005V196.005H145V195.005H144ZM144 99.0054H143V195.005H144H145V99.0054H144ZM144 195.005V194.005H48V195.005V196.005H144V195.005Z" fill="#D0D5DD" fill-opacity="0.32" mask="url(#path-8-inside-2_470_239)"/>
<mask id="path-10-inside-3_470_239" fill="white">
<path d="M144 99.0054H240V195.005H144V99.0054Z"/>
</mask>
<path d="M240 195.005V196.005H241V195.005H240ZM240 99.0054H239V195.005H240H241V99.0054H240ZM240 195.005V194.005H144V195.005V196.005H240V195.005Z" fill="#D0D5DD" fill-opacity="0.32" mask="url(#path-10-inside-3_470_239)"/>
<mask id="path-12-inside-4_470_239" fill="white">
<path d="M240 99.0054H336V195.005H240V99.0054Z"/>
</mask>
<path d="M336 195.005V196.005H337V195.005H336ZM336 99.0054H335V195.005H336H337V99.0054H336ZM336 195.005V194.005H240V195.005V196.005H336V195.005Z" fill="#D0D5DD" fill-opacity="0.32" mask="url(#path-12-inside-4_470_239)"/>
<mask id="path-14-inside-5_470_239" fill="white">
<path d="M336 99.0054H432V195.005H336V99.0054Z"/>
</mask>
<path d="M432 195.005V196.005H433V195.005H432ZM432 99.0054H431V195.005H432H433V99.0054H432ZM432 195.005V194.005H336V195.005V196.005H432V195.005Z" fill="#D0D5DD" fill-opacity="0.32" mask="url(#path-14-inside-5_470_239)"/>
<mask id="path-16-inside-6_470_239" fill="white">
<path d="M432 99.0054H528V195.005H432V99.0054Z"/>
</mask>
<path d="M528 195.005V196.005H529V195.005H528ZM528 99.0054H527V195.005H528H529V99.0054H528ZM528 195.005V194.005H432V195.005V196.005H528V195.005Z" fill="#D0D5DD" fill-opacity="0.32" mask="url(#path-16-inside-6_470_239)"/>
<mask id="path-18-inside-7_470_239" fill="white">
<path d="M528 99.0054H624V195.005H528V99.0054Z"/>
</mask>
<path d="M624 195.005V196.005H625V195.005H624ZM624 99.0054H623V195.005H624H625V99.0054H624ZM624 195.005V194.005H528V195.005V196.005H624V195.005Z" fill="#D0D5DD" fill-opacity="0.32" mask="url(#path-18-inside-7_470_239)"/>
<mask id="path-20-inside-8_470_239" fill="white">
<path d="M624 99.0054H720V195.005H624V99.0054Z"/>
</mask>
<path d="M720 195.005V196.005H721V195.005H720ZM720 99.0054H719V195.005H720H721V99.0054H720ZM720 195.005V194.005H624V195.005V196.005H720V195.005Z" fill="#D0D5DD" fill-opacity="0.32" mask="url(#path-20-inside-8_470_239)"/>
<mask id="path-22-inside-9_470_239" fill="white">
<path d="M720 99.0054H816V195.005H720V99.0054Z"/>
</mask>
<path d="M816 195.005V196.005H817V195.005H816ZM816 99.0054H815V195.005H816H817V99.0054H816ZM816 195.005V194.005H720V195.005V196.005H816V195.005Z" fill="#D0D5DD" fill-opacity="0.32" mask="url(#path-22-inside-9_470_239)"/>
<mask id="path-24-inside-10_470_239" fill="white">
<path d="M816 99.0054H912V195.005H816V99.0054Z"/>
</mask>
<path d="M912 195.005V196.005H913V195.005H912ZM912 99.0054H911V195.005H912H913V99.0054H912ZM912 195.005V194.005H816V195.005V196.005H912V195.005Z" fill="#D0D5DD" fill-opacity="0.32" mask="url(#path-24-inside-10_470_239)"/>
<mask id="path-26-inside-11_470_239" fill="white">
<path d="M912 99.0054H1008V195.005H912V99.0054Z"/>
</mask>
<path d="M1008 195.005V196.005H1009V195.005H1008ZM1008 99.0054H1007V195.005H1008H1009V99.0054H1008ZM1008 195.005V194.005H912V195.005V196.005H1008V195.005Z" fill="#D0D5DD" fill-opacity="0.32" mask="url(#path-26-inside-11_470_239)"/>
<mask id="path-28-inside-12_470_239" fill="white">
<path d="M1008 99.0054H1104V195.005H1008V99.0054Z"/>
</mask>
<path d="M1104 195.005V196.005H1105V195.005H1104ZM1104 99.0054H1103V195.005H1104H1105V99.0054H1104ZM1104 195.005V194.005H1008V195.005V196.005H1104V195.005Z" fill="#D0D5DD" fill-opacity="0.32" mask="url(#path-28-inside-12_470_239)"/>
<mask id="path-30-inside-13_470_239" fill="white">
<path d="M1104 99.0054H1200V195.005H1104V99.0054Z"/>
</mask>
<path d="M1200 195.005V196.005H1201V195.005H1200ZM1200 99.0054H1199V195.005H1200H1201V99.0054H1200ZM1200 195.005V194.005H1104V195.005V196.005H1200V195.005Z" fill="#D0D5DD" fill-opacity="0.32" mask="url(#path-30-inside-13_470_239)"/>
<mask id="path-32-inside-14_470_239" fill="white">
<path d="M1200 99.0054H1296V195.005H1200V99.0054Z"/>
</mask>
<path d="M1296 195.005V196.005H1297V195.005H1296ZM1296 99.0054H1295V195.005H1296H1297V99.0054H1296ZM1296 195.005V194.005H1200V195.005V196.005H1296V195.005Z" fill="#D0D5DD" fill-opacity="0.32" mask="url(#path-32-inside-14_470_239)"/>
<mask id="path-34-inside-15_470_239" fill="white">
<path d="M1296 99.0054H1392V195.005H1296V99.0054Z"/>
</mask>
<path d="M1392 195.005V196.005H1393V195.005H1392ZM1392 99.0054H1391V195.005H1392H1393V99.0054H1392ZM1392 195.005V194.005H1296V195.005V196.005H1392V195.005Z" fill="#D0D5DD" fill-opacity="0.32" mask="url(#path-34-inside-15_470_239)"/>
<mask id="path-36-inside-16_470_239" fill="white">
<path d="M-48 195.005H48V291.005H-48V195.005Z"/>
</mask>
<path d="M48 291.005V292.005H49V291.005H48ZM48 195.005H47V291.005H48H49V195.005H48ZM48 291.005V290.005H-48V291.005V292.005H48V291.005Z" fill="#D0D5DD" fill-opacity="0.32" mask="url(#path-36-inside-16_470_239)"/>
<mask id="path-38-inside-17_470_239" fill="white">
<path d="M48 195.005H144V291.005H48V195.005Z"/>
</mask>
<path d="M144 291.005V292.005H145V291.005H144ZM144 195.005H143V291.005H144H145V195.005H144ZM144 291.005V290.005H48V291.005V292.005H144V291.005Z" fill="#D0D5DD" fill-opacity="0.32" mask="url(#path-38-inside-17_470_239)"/>
<mask id="path-40-inside-18_470_239" fill="white">
<path d="M144 195.005H240V291.005H144V195.005Z"/>
</mask>
<path d="M240 291.005V292.005H241V291.005H240ZM240 195.005H239V291.005H240H241V195.005H240ZM240 291.005V290.005H144V291.005V292.005H240V291.005Z" fill="#D0D5DD" fill-opacity="0.32" mask="url(#path-40-inside-18_470_239)"/>
<mask id="path-42-inside-19_470_239" fill="white">
<path d="M240 195.005H336V291.005H240V195.005Z"/>
</mask>
<path d="M240 195.005H336V291.005H240V195.005Z" fill="#F2F4F7" fill-opacity="0.1"/>
<path d="M336 291.005V292.005H337V291.005H336ZM336 195.005H335V291.005H336H337V195.005H336ZM336 291.005V290.005H240V291.005V292.005H336V291.005Z" fill="#D0D5DD" fill-opacity="0.32" mask="url(#path-42-inside-19_470_239)"/>
<mask id="path-44-inside-20_470_239" fill="white">
<path d="M336 195.005H432V291.005H336V195.005Z"/>
</mask>
<path d="M432 291.005V292.005H433V291.005H432ZM432 195.005H431V291.005H432H433V195.005H432ZM432 291.005V290.005H336V291.005V292.005H432V291.005Z" fill="#D0D5DD" fill-opacity="0.32" mask="url(#path-44-inside-20_470_239)"/>
<mask id="path-46-inside-21_470_239" fill="white">
<path d="M432 195.005H528V291.005H432V195.005Z"/>
</mask>
<path d="M528 291.005V292.005H529V291.005H528ZM528 195.005H527V291.005H528H529V195.005H528ZM528 291.005V290.005H432V291.005V292.005H528V291.005Z" fill="#D0D5DD" fill-opacity="0.32" mask="url(#path-46-inside-21_470_239)"/>
<mask id="path-48-inside-22_470_239" fill="white">
<path d="M528 195.005H624V291.005H528V195.005Z"/>
</mask>
<path d="M624 291.005V292.005H625V291.005H624ZM624 195.005H623V291.005H624H625V195.005H624ZM624 291.005V290.005H528V291.005V292.005H624V291.005Z" fill="#D0D5DD" fill-opacity="0.32" mask="url(#path-48-inside-22_470_239)"/>
<mask id="path-50-inside-23_470_239" fill="white">
<path d="M624 195.005H720V291.005H624V195.005Z"/>
</mask>
<path d="M720 291.005V292.005H721V291.005H720ZM720 195.005H719V291.005H720H721V195.005H720ZM720 291.005V290.005H624V291.005V292.005H720V291.005Z" fill="#D0D5DD" fill-opacity="0.32" mask="url(#path-50-inside-23_470_239)"/>
<mask id="path-52-inside-24_470_239" fill="white">
<path d="M720 195.005H816V291.005H720V195.005Z"/>
</mask>
<path d="M816 291.005V292.005H817V291.005H816ZM816 195.005H815V291.005H816H817V195.005H816ZM816 291.005V290.005H720V291.005V292.005H816V291.005Z" fill="#D0D5DD" fill-opacity="0.32" mask="url(#path-52-inside-24_470_239)"/>
<mask id="path-54-inside-25_470_239" fill="white">
<path d="M816 195.005H912V291.005H816V195.005Z"/>
</mask>
<path d="M912 291.005V292.005H913V291.005H912ZM912 195.005H911V291.005H912H913V195.005H912ZM912 291.005V290.005H816V291.005V292.005H912V291.005Z" fill="#D0D5DD" fill-opacity="0.32" mask="url(#path-54-inside-25_470_239)"/>
<mask id="path-56-inside-26_470_239" fill="white">
<path d="M912 195.005H1008V291.005H912V195.005Z"/>
</mask>
<path d="M1008 291.005V292.005H1009V291.005H1008ZM1008 195.005H1007V291.005H1008H1009V195.005H1008ZM1008 291.005V290.005H912V291.005V292.005H1008V291.005Z" fill="#D0D5DD" fill-opacity="0.32" mask="url(#path-56-inside-26_470_239)"/>
<mask id="path-58-inside-27_470_239" fill="white">
<path d="M1008 195.005H1104V291.005H1008V195.005Z"/>
</mask>
<path d="M1104 291.005V292.005H1105V291.005H1104ZM1104 195.005H1103V291.005H1104H1105V195.005H1104ZM1104 291.005V290.005H1008V291.005V292.005H1104V291.005Z" fill="#D0D5DD" fill-opacity="0.32" mask="url(#path-58-inside-27_470_239)"/>
<mask id="path-60-inside-28_470_239" fill="white">
<path d="M1104 195.005H1200V291.005H1104V195.005Z"/>
</mask>
<path d="M1104 195.005H1200V291.005H1104V195.005Z" fill="#F2F4F7" fill-opacity="0.1"/>
<path d="M1200 291.005V292.005H1201V291.005H1200ZM1200 195.005H1199V291.005H1200H1201V195.005H1200ZM1200 291.005V290.005H1104V291.005V292.005H1200V291.005Z" fill="#D0D5DD" fill-opacity="0.32" mask="url(#path-60-inside-28_470_239)"/>
<mask id="path-62-inside-29_470_239" fill="white">
<path d="M1200 195.005H1296V291.005H1200V195.005Z"/>
</mask>
<path d="M1296 291.005V292.005H1297V291.005H1296ZM1296 195.005H1295V291.005H1296H1297V195.005H1296ZM1296 291.005V290.005H1200V291.005V292.005H1296V291.005Z" fill="#D0D5DD" fill-opacity="0.32" mask="url(#path-62-inside-29_470_239)"/>
<mask id="path-64-inside-30_470_239" fill="white">
<path d="M1296 195.005H1392V291.005H1296V195.005Z"/>
</mask>
<path d="M1392 291.005V292.005H1393V291.005H1392ZM1392 195.005H1391V291.005H1392H1393V195.005H1392ZM1392 291.005V290.005H1296V291.005V292.005H1392V291.005Z" fill="#D0D5DD" fill-opacity="0.32" mask="url(#path-64-inside-30_470_239)"/>
<mask id="path-66-inside-31_470_239" fill="white">
<path d="M-48 291.005H48V387.005H-48V291.005Z"/>
</mask>
<path d="M48 387.005V388.005H49V387.005H48ZM48 291.005H47V387.005H48H49V291.005H48ZM48 387.005V386.005H-48V387.005V388.005H48V387.005Z" fill="#D0D5DD" fill-opacity="0.32" mask="url(#path-66-inside-31_470_239)"/>
<mask id="path-68-inside-32_470_239" fill="white">
<path d="M48 291.005H144V387.005H48V291.005Z"/>
</mask>
<path d="M144 387.005V388.005H145V387.005H144ZM144 291.005H143V387.005H144H145V291.005H144ZM144 387.005V386.005H48V387.005V388.005H144V387.005Z" fill="#D0D5DD" fill-opacity="0.32" mask="url(#path-68-inside-32_470_239)"/>
<mask id="path-70-inside-33_470_239" fill="white">
<path d="M144 291.005H240V387.005H144V291.005Z"/>
</mask>
<path d="M240 387.005V388.005H241V387.005H240ZM240 291.005H239V387.005H240H241V291.005H240ZM240 387.005V386.005H144V387.005V388.005H240V387.005Z" fill="#D0D5DD" fill-opacity="0.32" mask="url(#path-70-inside-33_470_239)"/>
<mask id="path-72-inside-34_470_239" fill="white">
<path d="M240 291.005H336V387.005H240V291.005Z"/>
</mask>
<path d="M336 387.005V388.005H337V387.005H336ZM336 291.005H335V387.005H336H337V291.005H336ZM336 387.005V386.005H240V387.005V388.005H336V387.005Z" fill="#D0D5DD" fill-opacity="0.32" mask="url(#path-72-inside-34_470_239)"/>
<mask id="path-74-inside-35_470_239" fill="white">
<path d="M336 291.005H432V387.005H336V291.005Z"/>
</mask>
<path d="M432 387.005V388.005H433V387.005H432ZM432 291.005H431V387.005H432H433V291.005H432ZM432 387.005V386.005H336V387.005V388.005H432V387.005Z" fill="#D0D5DD" fill-opacity="0.32" mask="url(#path-74-inside-35_470_239)"/>
<mask id="path-76-inside-36_470_239" fill="white">
<path d="M432 291.005H528V387.005H432V291.005Z"/>
</mask>
<path d="M432 291.005H528V387.005H432V291.005Z" fill="#F2F4F7" fill-opacity="0.1"/>
<path d="M528 387.005V388.005H529V387.005H528ZM528 291.005H527V387.005H528H529V291.005H528ZM528 387.005V386.005H432V387.005V388.005H528V387.005Z" fill="#D0D5DD" fill-opacity="0.32" mask="url(#path-76-inside-36_470_239)"/>
<mask id="path-78-inside-37_470_239" fill="white">
<path d="M528 291.005H624V387.005H528V291.005Z"/>
</mask>
<path d="M624 387.005V388.005H625V387.005H624ZM624 291.005H623V387.005H624H625V291.005H624ZM624 387.005V386.005H528V387.005V388.005H624V387.005Z" fill="#D0D5DD" fill-opacity="0.32" mask="url(#path-78-inside-37_470_239)"/>
<mask id="path-80-inside-38_470_239" fill="white">
<path d="M624 291.005H720V387.005H624V291.005Z"/>
</mask>
<path d="M720 387.005V388.005H721V387.005H720ZM720 291.005H719V387.005H720H721V291.005H720ZM720 387.005V386.005H624V387.005V388.005H720V387.005Z" fill="#D0D5DD" fill-opacity="0.32" mask="url(#path-80-inside-38_470_239)"/>
<mask id="path-82-inside-39_470_239" fill="white">
<path d="M720 291.005H816V387.005H720V291.005Z"/>
</mask>
<path d="M816 387.005V388.005H817V387.005H816ZM816 291.005H815V387.005H816H817V291.005H816ZM816 387.005V386.005H720V387.005V388.005H816V387.005Z" fill="#D0D5DD" fill-opacity="0.32" mask="url(#path-82-inside-39_470_239)"/>
<mask id="path-84-inside-40_470_239" fill="white">
<path d="M816 291.005H912V387.005H816V291.005Z"/>
</mask>
<path d="M816 291.005H912V387.005H816V291.005Z" fill="#F2F4F7" fill-opacity="0.1"/>
<path d="M912 387.005V388.005H913V387.005H912ZM912 291.005H911V387.005H912H913V291.005H912ZM912 387.005V386.005H816V387.005V388.005H912V387.005Z" fill="#D0D5DD" fill-opacity="0.32" mask="url(#path-84-inside-40_470_239)"/>
<mask id="path-86-inside-41_470_239" fill="white">
<path d="M912 291.005H1008V387.005H912V291.005Z"/>
</mask>
<path d="M1008 387.005V388.005H1009V387.005H1008ZM1008 291.005H1007V387.005H1008H1009V291.005H1008ZM1008 387.005V386.005H912V387.005V388.005H1008V387.005Z" fill="#D0D5DD" fill-opacity="0.32" mask="url(#path-86-inside-41_470_239)"/>
<mask id="path-88-inside-42_470_239" fill="white">
<path d="M1008 291.005H1104V387.005H1008V291.005Z"/>
</mask>
<path d="M1104 387.005V388.005H1105V387.005H1104ZM1104 291.005H1103V387.005H1104H1105V291.005H1104ZM1104 387.005V386.005H1008V387.005V388.005H1104V387.005Z" fill="#D0D5DD" fill-opacity="0.32" mask="url(#path-88-inside-42_470_239)"/>
<mask id="path-90-inside-43_470_239" fill="white">
<path d="M1104 291.005H1200V387.005H1104V291.005Z"/>
</mask>
<path d="M1200 387.005V388.005H1201V387.005H1200ZM1200 291.005H1199V387.005H1200H1201V291.005H1200ZM1200 387.005V386.005H1104V387.005V388.005H1200V387.005Z" fill="#D0D5DD" fill-opacity="0.32" mask="url(#path-90-inside-43_470_239)"/>
<mask id="path-92-inside-44_470_239" fill="white">
<path d="M1200 291.005H1296V387.005H1200V291.005Z"/>
</mask>
<path d="M1296 387.005V388.005H1297V387.005H1296ZM1296 291.005H1295V387.005H1296H1297V291.005H1296ZM1296 387.005V386.005H1200V387.005V388.005H1296V387.005Z" fill="#D0D5DD" fill-opacity="0.32" mask="url(#path-92-inside-44_470_239)"/>
<mask id="path-94-inside-45_470_239" fill="white">
<path d="M1296 291.005H1392V387.005H1296V291.005Z"/>
</mask>
<path d="M1392 387.005V388.005H1393V387.005H1392ZM1392 291.005H1391V387.005H1392H1393V291.005H1392ZM1392 387.005V386.005H1296V387.005V388.005H1392V387.005Z" fill="#D0D5DD" fill-opacity="0.32" mask="url(#path-94-inside-45_470_239)"/>
<mask id="path-96-inside-46_470_239" fill="white">
<path d="M-48 387.005H48V483.005H-48V387.005Z"/>
</mask>
<path d="M-48 387.005H48V483.005H-48V387.005Z" fill="#F2F4F7" fill-opacity="0.1"/>
<path d="M48 483.005V484.005H49V483.005H48ZM48 387.005H47V483.005H48H49V387.005H48ZM48 483.005V482.005H-48V483.005V484.005H48V483.005Z" fill="#D0D5DD" fill-opacity="0.32" mask="url(#path-96-inside-46_470_239)"/>
<mask id="path-98-inside-47_470_239" fill="white">
<path d="M48 387.005H144V483.005H48V387.005Z"/>
</mask>
<path d="M144 483.005V484.005H145V483.005H144ZM144 387.005H143V483.005H144H145V387.005H144ZM144 483.005V482.005H48V483.005V484.005H144V483.005Z" fill="#D0D5DD" fill-opacity="0.32" mask="url(#path-98-inside-47_470_239)"/>
<mask id="path-100-inside-48_470_239" fill="white">
<path d="M144 387.005H240V483.005H144V387.005Z"/>
</mask>
<path d="M240 483.005V484.005H241V483.005H240ZM240 387.005H239V483.005H240H241V387.005H240ZM240 483.005V482.005H144V483.005V484.005H240V483.005Z" fill="#D0D5DD" fill-opacity="0.32" mask="url(#path-100-inside-48_470_239)"/>
<mask id="path-102-inside-49_470_239" fill="white">
<path d="M240 387.005H336V483.005H240V387.005Z"/>
</mask>
<path d="M336 483.005V484.005H337V483.005H336ZM336 387.005H335V483.005H336H337V387.005H336ZM336 483.005V482.005H240V483.005V484.005H336V483.005Z" fill="#D0D5DD" fill-opacity="0.32" mask="url(#path-102-inside-49_470_239)"/>
<mask id="path-104-inside-50_470_239" fill="white">
<path d="M336 387.005H432V483.005H336V387.005Z"/>
</mask>
<path d="M432 483.005V484.005H433V483.005H432ZM432 387.005H431V483.005H432H433V387.005H432ZM432 483.005V482.005H336V483.005V484.005H432V483.005Z" fill="#D0D5DD" fill-opacity="0.32" mask="url(#path-104-inside-50_470_239)"/>
<mask id="path-106-inside-51_470_239" fill="white">
<path d="M432 387.005H528V483.005H432V387.005Z"/>
</mask>
<path d="M528 483.005V484.005H529V483.005H528ZM528 387.005H527V483.005H528H529V387.005H528ZM528 483.005V482.005H432V483.005V484.005H528V483.005Z" fill="#D0D5DD" fill-opacity="0.32" mask="url(#path-106-inside-51_470_239)"/>
<mask id="path-108-inside-52_470_239" fill="white">
<path d="M528 387.005H624V483.005H528V387.005Z"/>
</mask>
<path d="M624 483.005V484.005H625V483.005H624ZM624 387.005H623V483.005H624H625V387.005H624ZM624 483.005V482.005H528V483.005V484.005H624V483.005Z" fill="#D0D5DD" fill-opacity="0.32" mask="url(#path-108-inside-52_470_239)"/>
<mask id="path-110-inside-53_470_239" fill="white">
<path d="M624 387.005H720V483.005H624V387.005Z"/>
</mask>
<path d="M720 483.005V484.005H721V483.005H720ZM720 387.005H719V483.005H720H721V387.005H720ZM720 483.005V482.005H624V483.005V484.005H720V483.005Z" fill="#D0D5DD" fill-opacity="0.32" mask="url(#path-110-inside-53_470_239)"/>
<mask id="path-112-inside-54_470_239" fill="white">
<path d="M720 387.005H816V483.005H720V387.005Z"/>
</mask>
<path d="M816 483.005V484.005H817V483.005H816ZM816 387.005H815V483.005H816H817V387.005H816ZM816 483.005V482.005H720V483.005V484.005H816V483.005Z" fill="#D0D5DD" fill-opacity="0.32" mask="url(#path-112-inside-54_470_239)"/>
<mask id="path-114-inside-55_470_239" fill="white">
<path d="M816 387.005H912V483.005H816V387.005Z"/>
</mask>
<path d="M912 483.005V484.005H913V483.005H912ZM912 387.005H911V483.005H912H913V387.005H912ZM912 483.005V482.005H816V483.005V484.005H912V483.005Z" fill="#D0D5DD" fill-opacity="0.32" mask="url(#path-114-inside-55_470_239)"/>
<mask id="path-116-inside-56_470_239" fill="white">
<path d="M912 387.005H1008V483.005H912V387.005Z"/>
</mask>
<path d="M1008 483.005V484.005H1009V483.005H1008ZM1008 387.005H1007V483.005H1008H1009V387.005H1008ZM1008 483.005V482.005H912V483.005V484.005H1008V483.005Z" fill="#D0D5DD" fill-opacity="0.32" mask="url(#path-116-inside-56_470_239)"/>
<mask id="path-118-inside-57_470_239" fill="white">
<path d="M1008 387.005H1104V483.005H1008V387.005Z"/>
</mask>
<path d="M1104 483.005V484.005H1105V483.005H1104ZM1104 387.005H1103V483.005H1104H1105V387.005H1104ZM1104 483.005V482.005H1008V483.005V484.005H1104V483.005Z" fill="#D0D5DD" fill-opacity="0.32" mask="url(#path-118-inside-57_470_239)"/>
<mask id="path-120-inside-58_470_239" fill="white">
<path d="M1104 387.005H1200V483.005H1104V387.005Z"/>
</mask>
<path d="M1104 387.005H1200V483.005H1104V387.005Z" fill="#F2F4F7" fill-opacity="0.1"/>
<path d="M1200 483.005V484.005H1201V483.005H1200ZM1200 387.005H1199V483.005H1200H1201V387.005H1200ZM1200 483.005V482.005H1104V483.005V484.005H1200V483.005Z" fill="#D0D5DD" fill-opacity="0.32" mask="url(#path-120-inside-58_470_239)"/>
<mask id="path-122-inside-59_470_239" fill="white">
<path d="M1200 387.005H1296V483.005H1200V387.005Z"/>
</mask>
<path d="M1296 483.005V484.005H1297V483.005H1296ZM1296 387.005H1295V483.005H1296H1297V387.005H1296ZM1296 483.005V482.005H1200V483.005V484.005H1296V483.005Z" fill="#D0D5DD" fill-opacity="0.32" mask="url(#path-122-inside-59_470_239)"/>
<mask id="path-124-inside-60_470_239" fill="white">
<path d="M1296 387.005H1392V483.005H1296V387.005Z"/>
</mask>
<path d="M1392 483.005V484.005H1393V483.005H1392ZM1392 387.005H1391V483.005H1392H1393V387.005H1392ZM1392 483.005V482.005H1296V483.005V484.005H1392V483.005Z" fill="#D0D5DD" fill-opacity="0.32" mask="url(#path-124-inside-60_470_239)"/>
<mask id="path-126-inside-61_470_239" fill="white">
<path d="M-48 483.005H48V579.005H-48V483.005Z"/>
</mask>
<path d="M48 579.005V580.005H49V579.005H48ZM48 483.005H47V579.005H48H49V483.005H48ZM48 579.005V578.005H-48V579.005V580.005H48V579.005Z" fill="#D0D5DD" fill-opacity="0.32" mask="url(#path-126-inside-61_470_239)"/>
<mask id="path-128-inside-62_470_239" fill="white">
<path d="M48 483.005H144V579.005H48V483.005Z"/>
</mask>
<path d="M144 579.005V580.005H145V579.005H144ZM144 483.005H143V579.005H144H145V483.005H144ZM144 579.005V578.005H48V579.005V580.005H144V579.005Z" fill="#D0D5DD" fill-opacity="0.32" mask="url(#path-128-inside-62_470_239)"/>
<mask id="path-130-inside-63_470_239" fill="white">
<path d="M144 483.005H240V579.005H144V483.005Z"/>
</mask>
<path d="M240 579.005V580.005H241V579.005H240ZM240 483.005H239V579.005H240H241V483.005H240ZM240 579.005V578.005H144V579.005V580.005H240V579.005Z" fill="#D0D5DD" fill-opacity="0.32" mask="url(#path-130-inside-63_470_239)"/>
<mask id="path-132-inside-64_470_239" fill="white">
<path d="M240 483.005H336V579.005H240V483.005Z"/>
</mask>
<path d="M336 579.005V580.005H337V579.005H336ZM336 483.005H335V579.005H336H337V483.005H336ZM336 579.005V578.005H240V579.005V580.005H336V579.005Z" fill="#D0D5DD" fill-opacity="0.32" mask="url(#path-132-inside-64_470_239)"/>
<mask id="path-134-inside-65_470_239" fill="white">
<path d="M336 483.005H432V579.005H336V483.005Z"/>
</mask>
<path d="M432 579.005V580.005H433V579.005H432ZM432 483.005H431V579.005H432H433V483.005H432ZM432 579.005V578.005H336V579.005V580.005H432V579.005Z" fill="#D0D5DD" fill-opacity="0.32" mask="url(#path-134-inside-65_470_239)"/>
<mask id="path-136-inside-66_470_239" fill="white">
<path d="M432 483.005H528V579.005H432V483.005Z"/>
</mask>
<path d="M528 579.005V580.005H529V579.005H528ZM528 483.005H527V579.005H528H529V483.005H528ZM528 579.005V578.005H432V579.005V580.005H528V579.005Z" fill="#D0D5DD" fill-opacity="0.32" mask="url(#path-136-inside-66_470_239)"/>
<mask id="path-138-inside-67_470_239" fill="white">
<path d="M528 483.005H624V579.005H528V483.005Z"/>
</mask>
<path d="M528 483.005H624V579.005H528V483.005Z" fill="#F2F4F7" fill-opacity="0.1"/>
<path d="M624 579.005V580.005H625V579.005H624ZM624 483.005H623V579.005H624H625V483.005H624ZM624 579.005V578.005H528V579.005V580.005H624V579.005Z" fill="#D0D5DD" fill-opacity="0.32" mask="url(#path-138-inside-67_470_239)"/>
<mask id="path-140-inside-68_470_239" fill="white">
<path d="M624 483.005H720V579.005H624V483.005Z"/>
</mask>
<path d="M720 579.005V580.005H721V579.005H720ZM720 483.005H719V579.005H720H721V483.005H720ZM720 579.005V578.005H624V579.005V580.005H720V579.005Z" fill="#D0D5DD" fill-opacity="0.32" mask="url(#path-140-inside-68_470_239)"/>
<mask id="path-142-inside-69_470_239" fill="white">
<path d="M720 483.005H816V579.005H720V483.005Z"/>
</mask>
<path d="M816 579.005V580.005H817V579.005H816ZM816 483.005H815V579.005H816H817V483.005H816ZM816 579.005V578.005H720V579.005V580.005H816V579.005Z" fill="#D0D5DD" fill-opacity="0.32" mask="url(#path-142-inside-69_470_239)"/>
<mask id="path-144-inside-70_470_239" fill="white">
<path d="M816 483.005H912V579.005H816V483.005Z"/>
</mask>
<path d="M912 579.005V580.005H913V579.005H912ZM912 483.005H911V579.005H912H913V483.005H912ZM912 579.005V578.005H816V579.005V580.005H912V579.005Z" fill="#D0D5DD" fill-opacity="0.32" mask="url(#path-144-inside-70_470_239)"/>
<mask id="path-146-inside-71_470_239" fill="white">
<path d="M912 483.005H1008V579.005H912V483.005Z"/>
</mask>
<path d="M1008 579.005V580.005H1009V579.005H1008ZM1008 483.005H1007V579.005H1008H1009V483.005H1008ZM1008 579.005V578.005H912V579.005V580.005H1008V579.005Z" fill="#D0D5DD" fill-opacity="0.32" mask="url(#path-146-inside-71_470_239)"/>
<mask id="path-148-inside-72_470_239" fill="white">
<path d="M1008 483.005H1104V579.005H1008V483.005Z"/>
</mask>
<path d="M1104 579.005V580.005H1105V579.005H1104ZM1104 483.005H1103V579.005H1104H1105V483.005H1104ZM1104 579.005V578.005H1008V579.005V580.005H1104V579.005Z" fill="#D0D5DD" fill-opacity="0.32" mask="url(#path-148-inside-72_470_239)"/>
<mask id="path-150-inside-73_470_239" fill="white">
<path d="M1104 483.005H1200V579.005H1104V483.005Z"/>
</mask>
<path d="M1200 579.005V580.005H1201V579.005H1200ZM1200 483.005H1199V579.005H1200H1201V483.005H1200ZM1200 579.005V578.005H1104V579.005V580.005H1200V579.005Z" fill="#D0D5DD" fill-opacity="0.32" mask="url(#path-150-inside-73_470_239)"/>
<mask id="path-152-inside-74_470_239" fill="white">
<path d="M1200 483.005H1296V579.005H1200V483.005Z"/>
</mask>
<path d="M1296 579.005V580.005H1297V579.005H1296ZM1296 483.005H1295V579.005H1296H1297V483.005H1296ZM1296 579.005V578.005H1200V579.005V580.005H1296V579.005Z" fill="#D0D5DD" fill-opacity="0.32" mask="url(#path-152-inside-74_470_239)"/>
<mask id="path-154-inside-75_470_239" fill="white">
<path d="M1296 483.005H1392V579.005H1296V483.005Z"/>
</mask>
<path d="M1392 579.005V580.005H1393V579.005H1392ZM1392 483.005H1391V579.005H1392H1393V483.005H1392ZM1392 579.005V578.005H1296V579.005V580.005H1392V579.005Z" fill="#D0D5DD" fill-opacity="0.32" mask="url(#path-154-inside-75_470_239)"/>
<mask id="path-156-inside-76_470_239" fill="white">
<path d="M-48 579.005H48V675.005H-48V579.005Z"/>
</mask>
<path d="M48 675.005V676.005H49V675.005H48ZM48 579.005H47V675.005H48H49V579.005H48ZM48 675.005V674.005H-48V675.005V676.005H48V675.005Z" fill="#D0D5DD" fill-opacity="0.32" mask="url(#path-156-inside-76_470_239)"/>
<mask id="path-158-inside-77_470_239" fill="white">
<path d="M48 579.005H144V675.005H48V579.005Z"/>
</mask>
<path d="M144 675.005V676.005H145V675.005H144ZM144 579.005H143V675.005H144H145V579.005H144ZM144 675.005V674.005H48V675.005V676.005H144V675.005Z" fill="#D0D5DD" fill-opacity="0.32" mask="url(#path-158-inside-77_470_239)"/>
<mask id="path-160-inside-78_470_239" fill="white">
<path d="M144 579.005H240V675.005H144V579.005Z"/>
</mask>
<path d="M240 675.005V676.005H241V675.005H240ZM240 579.005H239V675.005H240H241V579.005H240ZM240 675.005V674.005H144V675.005V676.005H240V675.005Z" fill="#D0D5DD" fill-opacity="0.32" mask="url(#path-160-inside-78_470_239)"/>
<mask id="path-162-inside-79_470_239" fill="white">
<path d="M240 579.005H336V675.005H240V579.005Z"/>
</mask>
<path d="M240 579.005H336V675.005H240V579.005Z" fill="#F2F4F7" fill-opacity="0.1"/>
<path d="M336 675.005V676.005H337V675.005H336ZM336 579.005H335V675.005H336H337V579.005H336ZM336 675.005V674.005H240V675.005V676.005H336V675.005Z" fill="#D0D5DD" fill-opacity="0.32" mask="url(#path-162-inside-79_470_239)"/>
<mask id="path-164-inside-80_470_239" fill="white">
<path d="M336 579.005H432V675.005H336V579.005Z"/>
</mask>
<path d="M432 675.005V676.005H433V675.005H432ZM432 579.005H431V675.005H432H433V579.005H432ZM432 675.005V674.005H336V675.005V676.005H432V675.005Z" fill="#D0D5DD" fill-opacity="0.32" mask="url(#path-164-inside-80_470_239)"/>
<mask id="path-166-inside-81_470_239" fill="white">
<path d="M432 579.005H528V675.005H432V579.005Z"/>
</mask>
<path d="M528 675.005V676.005H529V675.005H528ZM528 579.005H527V675.005H528H529V579.005H528ZM528 675.005V674.005H432V675.005V676.005H528V675.005Z" fill="#D0D5DD" fill-opacity="0.32" mask="url(#path-166-inside-81_470_239)"/>
<mask id="path-168-inside-82_470_239" fill="white">
<path d="M528 579.005H624V675.005H528V579.005Z"/>
</mask>
<path d="M624 675.005V676.005H625V675.005H624ZM624 579.005H623V675.005H624H625V579.005H624ZM624 675.005V674.005H528V675.005V676.005H624V675.005Z" fill="#D0D5DD" fill-opacity="0.32" mask="url(#path-168-inside-82_470_239)"/>
<mask id="path-170-inside-83_470_239" fill="white">
<path d="M624 579.005H720V675.005H624V579.005Z"/>
</mask>
<path d="M720 675.005V676.005H721V675.005H720ZM720 579.005H719V675.005H720H721V579.005H720ZM720 675.005V674.005H624V675.005V676.005H720V675.005Z" fill="#D0D5DD" fill-opacity="0.32" mask="url(#path-170-inside-83_470_239)"/>
<mask id="path-172-inside-84_470_239" fill="white">
<path d="M720 579.005H816V675.005H720V579.005Z"/>
</mask>
<path d="M816 675.005V676.005H817V675.005H816ZM816 579.005H815V675.005H816H817V579.005H816ZM816 675.005V674.005H720V675.005V676.005H816V675.005Z" fill="#D0D5DD" fill-opacity="0.32" mask="url(#path-172-inside-84_470_239)"/>
<mask id="path-174-inside-85_470_239" fill="white">
<path d="M816 579.005H912V675.005H816V579.005Z"/>
</mask>
<path d="M816 579.005H912V675.005H816V579.005Z" fill="#F2F4F7" fill-opacity="0.1"/>
<path d="M912 675.005V676.005H913V675.005H912ZM912 579.005H911V675.005H912H913V579.005H912ZM912 675.005V674.005H816V675.005V676.005H912V675.005Z" fill="#D0D5DD" fill-opacity="0.32" mask="url(#path-174-inside-85_470_239)"/>
<mask id="path-176-inside-86_470_239" fill="white">
<path d="M912 579.005H1008V675.005H912V579.005Z"/>
</mask>
<path d="M1008 675.005V676.005H1009V675.005H1008ZM1008 579.005H1007V675.005H1008H1009V579.005H1008ZM1008 675.005V674.005H912V675.005V676.005H1008V675.005Z" fill="#D0D5DD" fill-opacity="0.32" mask="url(#path-176-inside-86_470_239)"/>
<mask id="path-178-inside-87_470_239" fill="white">
<path d="M1008 579.005H1104V675.005H1008V579.005Z"/>
</mask>
<path d="M1104 675.005V676.005H1105V675.005H1104ZM1104 579.005H1103V675.005H1104H1105V579.005H1104ZM1104 675.005V674.005H1008V675.005V676.005H1104V675.005Z" fill="#D0D5DD" fill-opacity="0.32" mask="url(#path-178-inside-87_470_239)"/>
<mask id="path-180-inside-88_470_239" fill="white">
<path d="M1104 579.005H1200V675.005H1104V579.005Z"/>
</mask>
<path d="M1200 675.005V676.005H1201V675.005H1200ZM1200 579.005H1199V675.005H1200H1201V579.005H1200ZM1200 675.005V674.005H1104V675.005V676.005H1200V675.005Z" fill="#D0D5DD" fill-opacity="0.32" mask="url(#path-180-inside-88_470_239)"/>
<mask id="path-182-inside-89_470_239" fill="white">
<path d="M1200 579.005H1296V675.005H1200V579.005Z"/>
</mask>
<path d="M1296 675.005V676.005H1297V675.005H1296ZM1296 579.005H1295V675.005H1296H1297V579.005H1296ZM1296 675.005V674.005H1200V675.005V676.005H1296V675.005Z" fill="#D0D5DD" fill-opacity="0.32" mask="url(#path-182-inside-89_470_239)"/>
<mask id="path-184-inside-90_470_239" fill="white">
<path d="M1296 579.005H1392V675.005H1296V579.005Z"/>
</mask>
<path d="M1392 675.005V676.005H1393V675.005H1392ZM1392 579.005H1391V675.005H1392H1393V579.005H1392ZM1392 675.005V674.005H1296V675.005V676.005H1392V675.005Z" fill="#D0D5DD" fill-opacity="0.32" mask="url(#path-184-inside-90_470_239)"/>
<mask id="path-186-inside-91_470_239" fill="white">
<path d="M-48 675.005H48V771.005H-48V675.005Z"/>
</mask>
<path d="M48 771.005V772.005H49V771.005H48ZM48 675.005H47V771.005H48H49V675.005H48ZM48 771.005V770.005H-48V771.005V772.005H48V771.005Z" fill="#D0D5DD" fill-opacity="0.32" mask="url(#path-186-inside-91_470_239)"/>
<mask id="path-188-inside-92_470_239" fill="white">
<path d="M48 675.005H144V771.005H48V675.005Z"/>
</mask>
<path d="M48 675.005H144V771.005H48V675.005Z" fill="#F2F4F7" fill-opacity="0.1"/>
<path d="M144 771.005V772.005H145V771.005H144ZM144 675.005H143V771.005H144H145V675.005H144ZM144 771.005V770.005H48V771.005V772.005H144V771.005Z" fill="#D0D5DD" fill-opacity="0.32" mask="url(#path-188-inside-92_470_239)"/>
<mask id="path-190-inside-93_470_239" fill="white">
<path d="M144 675.005H240V771.005H144V675.005Z"/>
</mask>
<path d="M240 771.005V772.005H241V771.005H240ZM240 675.005H239V771.005H240H241V675.005H240ZM240 771.005V770.005H144V771.005V772.005H240V771.005Z" fill="#D0D5DD" fill-opacity="0.32" mask="url(#path-190-inside-93_470_239)"/>
<mask id="path-192-inside-94_470_239" fill="white">
<path d="M240 675.005H336V771.005H240V675.005Z"/>
</mask>
<path d="M336 771.005V772.005H337V771.005H336ZM336 675.005H335V771.005H336H337V675.005H336ZM336 771.005V770.005H240V771.005V772.005H336V771.005Z" fill="#D0D5DD" fill-opacity="0.32" mask="url(#path-192-inside-94_470_239)"/>
<mask id="path-194-inside-95_470_239" fill="white">
<path d="M336 675.005H432V771.005H336V675.005Z"/>
</mask>
<path d="M432 771.005V772.005H433V771.005H432ZM432 675.005H431V771.005H432H433V675.005H432ZM432 771.005V770.005H336V771.005V772.005H432V771.005Z" fill="#D0D5DD" fill-opacity="0.32" mask="url(#path-194-inside-95_470_239)"/>
<mask id="path-196-inside-96_470_239" fill="white">
<path d="M432 675.005H528V771.005H432V675.005Z"/>
</mask>
<path d="M528 771.005V772.005H529V771.005H528ZM528 675.005H527V771.005H528H529V675.005H528ZM528 771.005V770.005H432V771.005V772.005H528V771.005Z" fill="#D0D5DD" fill-opacity="0.32" mask="url(#path-196-inside-96_470_239)"/>
<mask id="path-198-inside-97_470_239" fill="white">
<path d="M528 675.005H624V771.005H528V675.005Z"/>
</mask>
<path d="M624 771.005V772.005H625V771.005H624ZM624 675.005H623V771.005H624H625V675.005H624ZM624 771.005V770.005H528V771.005V772.005H624V771.005Z" fill="#D0D5DD" fill-opacity="0.32" mask="url(#path-198-inside-97_470_239)"/>
<mask id="path-200-inside-98_470_239" fill="white">
<path d="M624 675.005H720V771.005H624V675.005Z"/>
</mask>
<path d="M720 771.005V772.005H721V771.005H720ZM720 675.005H719V771.005H720H721V675.005H720ZM720 771.005V770.005H624V771.005V772.005H720V771.005Z" fill="#D0D5DD" fill-opacity="0.32" mask="url(#path-200-inside-98_470_239)"/>
<mask id="path-202-inside-99_470_239" fill="white">
<path d="M720 675.005H816V771.005H720V675.005Z"/>
</mask>
<path d="M816 771.005V772.005H817V771.005H816ZM816 675.005H815V771.005H816H817V675.005H816ZM816 771.005V770.005H720V771.005V772.005H816V771.005Z" fill="#D0D5DD" fill-opacity="0.32" mask="url(#path-202-inside-99_470_239)"/>
<mask id="path-204-inside-100_470_239" fill="white">
<path d="M816 675.005H912V771.005H816V675.005Z"/>
</mask>
<path d="M912 771.005V772.005H913V771.005H912ZM912 675.005H911V771.005H912H913V675.005H912ZM912 771.005V770.005H816V771.005V772.005H912V771.005Z" fill="#D0D5DD" fill-opacity="0.32" mask="url(#path-204-inside-100_470_239)"/>
<mask id="path-206-inside-101_470_239" fill="white">
<path d="M912 675.005H1008V771.005H912V675.005Z"/>
</mask>
<path d="M1008 771.005V772.005H1009V771.005H1008ZM1008 675.005H1007V771.005H1008H1009V675.005H1008ZM1008 771.005V770.005H912V771.005V772.005H1008V771.005Z" fill="#D0D5DD" fill-opacity="0.32" mask="url(#path-206-inside-101_470_239)"/>
<mask id="path-208-inside-102_470_239" fill="white">
<path d="M1008 675.005H1104V771.005H1008V675.005Z"/>
</mask>
<path d="M1104 771.005V772.005H1105V771.005H1104ZM1104 675.005H1103V771.005H1104H1105V675.005H1104ZM1104 771.005V770.005H1008V771.005V772.005H1104V771.005Z" fill="#D0D5DD" fill-opacity="0.32" mask="url(#path-208-inside-102_470_239)"/>
<mask id="path-210-inside-103_470_239" fill="white">
<path d="M1104 675.005H1200V771.005H1104V675.005Z"/>
</mask>
<path d="M1200 771.005V772.005H1201V771.005H1200ZM1200 675.005H1199V771.005H1200H1201V675.005H1200ZM1200 771.005V770.005H1104V771.005V772.005H1200V771.005Z" fill="#D0D5DD" fill-opacity="0.32" mask="url(#path-210-inside-103_470_239)"/>
<mask id="path-212-inside-104_470_239" fill="white">
<path d="M1200 675.005H1296V771.005H1200V675.005Z"/>
</mask>
<path d="M1296 771.005V772.005H1297V771.005H1296ZM1296 675.005H1295V771.005H1296H1297V675.005H1296ZM1296 771.005V770.005H1200V771.005V772.005H1296V771.005Z" fill="#D0D5DD" fill-opacity="0.32" mask="url(#path-212-inside-104_470_239)"/>
<mask id="path-214-inside-105_470_239" fill="white">
<path d="M1296 675.005H1392V771.005H1296V675.005Z"/>
</mask>
<path d="M1296 675.005H1392V771.005H1296V675.005Z" fill="#F2F4F7" fill-opacity="0.1"/>
<path d="M1392 771.005V772.005H1393V771.005H1392ZM1392 675.005H1391V771.005H1392H1393V675.005H1392ZM1392 771.005V770.005H1296V771.005V772.005H1392V771.005Z" fill="#D0D5DD" fill-opacity="0.32" mask="url(#path-214-inside-105_470_239)"/>
<mask id="path-216-inside-106_470_239" fill="white">
<path d="M-48 771.005H48V867.005H-48V771.005Z"/>
</mask>
<path d="M48 867.005V868.005H49V867.005H48ZM48 771.005H47V867.005H48H49V771.005H48ZM48 867.005V866.005H-48V867.005V868.005H48V867.005Z" fill="#D0D5DD" fill-opacity="0.32" mask="url(#path-216-inside-106_470_239)"/>
<mask id="path-218-inside-107_470_239" fill="white">
<path d="M48 771.005H144V867.005H48V771.005Z"/>
</mask>
<path d="M144 867.005V868.005H145V867.005H144ZM144 771.005H143V867.005H144H145V771.005H144ZM144 867.005V866.005H48V867.005V868.005H144V867.005Z" fill="#D0D5DD" fill-opacity="0.32" mask="url(#path-218-inside-107_470_239)"/>
<mask id="path-220-inside-108_470_239" fill="white">
<path d="M144 771.005H240V867.005H144V771.005Z"/>
</mask>
<path d="M240 867.005V868.005H241V867.005H240ZM240 771.005H239V867.005H240H241V771.005H240ZM240 867.005V866.005H144V867.005V868.005H240V867.005Z" fill="#D0D5DD" fill-opacity="0.32" mask="url(#path-220-inside-108_470_239)"/>
<mask id="path-222-inside-109_470_239" fill="white">
<path d="M240 771.005H336V867.005H240V771.005Z"/>
</mask>
<path d="M336 867.005V868.005H337V867.005H336ZM336 771.005H335V867.005H336H337V771.005H336ZM336 867.005V866.005H240V867.005V868.005H336V867.005Z" fill="#D0D5DD" fill-opacity="0.32" mask="url(#path-222-inside-109_470_239)"/>
<mask id="path-224-inside-110_470_239" fill="white">
<path d="M336 771.005H432V867.005H336V771.005Z"/>
</mask>
<path d="M432 867.005V868.005H433V867.005H432ZM432 771.005H431V867.005H432H433V771.005H432ZM432 867.005V866.005H336V867.005V868.005H432V867.005Z" fill="#D0D5DD" fill-opacity="0.32" mask="url(#path-224-inside-110_470_239)"/>
<mask id="path-226-inside-111_470_239" fill="white">
<path d="M432 771.005H528V867.005H432V771.005Z"/>
</mask>
<path d="M528 867.005V868.005H529V867.005H528ZM528 771.005H527V867.005H528H529V771.005H528ZM528 867.005V866.005H432V867.005V868.005H528V867.005Z" fill="#D0D5DD" fill-opacity="0.32" mask="url(#path-226-inside-111_470_239)"/>
<mask id="path-228-inside-112_470_239" fill="white">
<path d="M528 771.005H624V867.005H528V771.005Z"/>
</mask>
<path d="M528 771.005H624V867.005H528V771.005Z" fill="#F2F4F7" fill-opacity="0.1"/>
<path d="M624 867.005V868.005H625V867.005H624ZM624 771.005H623V867.005H624H625V771.005H624ZM624 867.005V866.005H528V867.005V868.005H624V867.005Z" fill="#D0D5DD" fill-opacity="0.32" mask="url(#path-228-inside-112_470_239)"/>
<mask id="path-230-inside-113_470_239" fill="white">
<path d="M624 771.005H720V867.005H624V771.005Z"/>
</mask>
<path d="M720 867.005V868.005H721V867.005H720ZM720 771.005H719V867.005H720H721V771.005H720ZM720 867.005V866.005H624V867.005V868.005H720V867.005Z" fill="#D0D5DD" fill-opacity="0.32" mask="url(#path-230-inside-113_470_239)"/>
<mask id="path-232-inside-114_470_239" fill="white">
<path d="M720 771.005H816V867.005H720V771.005Z"/>
</mask>
<path d="M816 867.005V868.005H817V867.005H816ZM816 771.005H815V867.005H816H817V771.005H816ZM816 867.005V866.005H720V867.005V868.005H816V867.005Z" fill="#D0D5DD" fill-opacity="0.32" mask="url(#path-232-inside-114_470_239)"/>
<mask id="path-234-inside-115_470_239" fill="white">
<path d="M816 771.005H912V867.005H816V771.005Z"/>
</mask>
<path d="M912 867.005V868.005H913V867.005H912ZM912 771.005H911V867.005H912H913V771.005H912ZM912 867.005V866.005H816V867.005V868.005H912V867.005Z" fill="#D0D5DD" fill-opacity="0.32" mask="url(#path-234-inside-115_470_239)"/>
<mask id="path-236-inside-116_470_239" fill="white">
<path d="M912 771.005H1008V867.005H912V771.005Z"/>
</mask>
<path d="M1008 867.005V868.005H1009V867.005H1008ZM1008 771.005H1007V867.005H1008H1009V771.005H1008ZM1008 867.005V866.005H912V867.005V868.005H1008V867.005Z" fill="#D0D5DD" fill-opacity="0.32" mask="url(#path-236-inside-116_470_239)"/>
<mask id="path-238-inside-117_470_239" fill="white">
<path d="M1008 771.005H1104V867.005H1008V771.005Z"/>
</mask>
<path d="M1104 867.005V868.005H1105V867.005H1104ZM1104 771.005H1103V867.005H1104H1105V771.005H1104ZM1104 867.005V866.005H1008V867.005V868.005H1104V867.005Z" fill="#D0D5DD" fill-opacity="0.32" mask="url(#path-238-inside-117_470_239)"/>
<mask id="path-240-inside-118_470_239" fill="white">
<path d="M1104 771.005H1200V867.005H1104V771.005Z"/>
</mask>
<path d="M1104 771.005H1200V867.005H1104V771.005Z" fill="#F2F4F7" fill-opacity="0.1"/>
<path d="M1200 867.005V868.005H1201V867.005H1200ZM1200 771.005H1199V867.005H1200H1201V771.005H1200ZM1200 867.005V866.005H1104V867.005V868.005H1200V867.005Z" fill="#D0D5DD" fill-opacity="0.32" mask="url(#path-240-inside-118_470_239)"/>
<mask id="path-242-inside-119_470_239" fill="white">
<path d="M1200 771.005H1296V867.005H1200V771.005Z"/>
</mask>
<path d="M1296 867.005V868.005H1297V867.005H1296ZM1296 771.005H1295V867.005H1296H1297V771.005H1296ZM1296 867.005V866.005H1200V867.005V868.005H1296V867.005Z" fill="#D0D5DD" fill-opacity="0.32" mask="url(#path-242-inside-119_470_239)"/>
<mask id="path-244-inside-120_470_239" fill="white">
<path d="M1296 771.005H1392V867.005H1296V771.005Z"/>
</mask>
<path d="M1392 867.005V868.005H1393V867.005H1392ZM1392 771.005H1391V867.005H1392H1393V771.005H1392ZM1392 867.005V866.005H1296V867.005V868.005H1392V867.005Z" fill="#D0D5DD" fill-opacity="0.32" mask="url(#path-244-inside-120_470_239)"/>
</g>
<rect x="-239.5" y="99.5054" width="1919" height="1439" stroke="#D0D5DD" stroke-opacity="0.32"/>
</g>
</g>
<g filter="url(#filter3_f_470_239)">
<circle cx="703" cy="964" r="395" fill="#1D9B5E" fill-opacity="0.06"/>
</g>
</g>
<defs>
<filter id="filter0_f_470_239" x="-435" y="328" width="1153" height="1153" filterUnits="userSpaceOnUse" color-interpolation-filters="sRGB">
<feFlood flood-opacity="0" result="BackgroundImageFix"/>
<feBlend mode="normal" in="SourceGraphic" in2="BackgroundImageFix" result="shape"/>
<feGaussianBlur stdDeviation="200" result="effect1_foregroundBlur_470_239"/>
</filter>
<filter id="filter1_f_470_239" x="-125" y="-182" width="1153" height="1153" filterUnits="userSpaceOnUse" color-interpolation-filters="sRGB">
<feFlood flood-opacity="0" result="BackgroundImageFix"/>
<feBlend mode="normal" in="SourceGraphic" in2="BackgroundImageFix" result="shape"/>
<feGaussianBlur stdDeviation="200" result="effect1_foregroundBlur_470_239"/>
</filter>
<filter id="filter2_f_470_239" x="764.512" y="-470" width="1049.82" height="1049.82" filterUnits="userSpaceOnUse" color-interpolation-filters="sRGB">
<feFlood flood-opacity="0" result="BackgroundImageFix"/>
<feBlend mode="normal" in="SourceGraphic" in2="BackgroundImageFix" result="shape"/>
<feGaussianBlur stdDeviation="200" result="effect1_foregroundBlur_470_239"/>
</filter>
<filter id="filter3_f_470_239" x="257.4" y="518.4" width="891.2" height="891.2" filterUnits="userSpaceOnUse" color-interpolation-filters="sRGB">
<feFlood flood-opacity="0" result="BackgroundImageFix"/>
<feBlend mode="normal" in="SourceGraphic" in2="BackgroundImageFix" result="shape"/>
<feGaussianBlur stdDeviation="25.3" result="effect1_foregroundBlur_470_239"/>
</filter>
<radialGradient id="paint0_radial_470_239" cx="0" cy="0" r="1" gradientUnits="userSpaceOnUse" gradientTransform="translate(720 -0.000142694) rotate(90) scale(1197 751.588)">
<stop/>
<stop offset="0.953125" stop-opacity="0"/>
</radialGradient>
<clipPath id="clip0_470_239">
<rect width="1385" height="842" fill="white"/>
</clipPath>
<clipPath id="clip1_470_239">
<rect width="1435.58" height="981.995" fill="white" transform="translate(2 99.0054)"/>
</clipPath>
<clipPath id="clip2_470_239">
<rect x="-240" y="99.0054" width="1920" height="1440" fill="white"/>
</clipPath>
</defs>
</svg>
