<svg width="382" height="360" viewBox="0 0 382 360" fill="none" xmlns="http://www.w3.org/2000/svg">
<rect x="0.5" y="0.210571" width="381" height="359.579" rx="16" fill="white"/>
<rect x="19.5" y="21.2106" width="343" height="72" rx="12" fill="#F9F9F9"/>
<rect x="35.5" y="37.2106" width="40" height="40" rx="20" fill="#F1F5EB"/>
<path d="M50.0001 62.98L62.6737 51.6938M62.6737 51.6938L62.1862 60.1121M62.6737 51.6938L54.5792 51.225" stroke="#F04343" stroke-width="2" stroke-linejoin="round"/>
<path d="M87.184 46.6506C87.88 46.1826 88.252 45.7626 88.252 45.1146C88.252 44.3826 87.772 43.9266 86.968 43.9266C86.068 43.9266 85.552 44.5026 85.552 45.6186H84.016C84.016 43.6626 85.252 42.6306 86.992 42.6306C88.732 42.6306 89.824 43.6746 89.824 45.1746C89.824 46.2186 89.296 46.9386 88.096 47.7426L86.704 48.6546C86.188 48.9906 85.816 49.3986 85.6 49.9146H89.896V51.2106H83.812C83.812 49.6026 84.412 48.4626 85.78 47.5626L87.184 46.6506ZM90.8494 51.2106V45.1386H92.2414V46.0146C92.6134 45.3066 93.2494 44.9466 94.0774 44.9466C94.9894 44.9466 95.6374 45.3786 95.9614 46.1346C96.3094 45.3666 96.9814 44.9466 97.8694 44.9466C99.1774 44.9466 99.9814 45.8466 99.9814 47.3226V51.2106H98.4454V47.5746C98.4454 46.6986 98.1214 46.2786 97.4854 46.2786C96.7894 46.2786 96.1894 46.8306 96.1894 48.1146V51.2106H94.6534V47.5746C94.6534 46.6986 94.3294 46.2786 93.6934 46.2786C92.9614 46.2786 92.3854 46.8666 92.3854 48.1146V51.2106H90.8494ZM100.974 51.2106V45.1386H102.51V51.2106H100.974ZM101.742 44.2506C101.202 44.2506 100.806 43.8786 100.806 43.3746C100.806 42.8826 101.202 42.4866 101.742 42.4866C102.282 42.4866 102.678 42.8826 102.678 43.3746C102.678 43.8786 102.282 44.2506 101.742 44.2506ZM107.715 47.6466C107.715 46.7106 107.343 46.2786 106.599 46.2786C105.747 46.2786 105.147 46.8666 105.147 48.1866V51.2106H103.611V45.1386H105.003V46.0266C105.387 45.3186 106.059 44.9466 106.971 44.9466C108.399 44.9466 109.251 45.8466 109.251 47.3586V51.2106H107.715V47.6466ZM113.568 47.6706C114.792 47.8866 115.44 48.4866 115.44 49.4706C115.44 50.6706 114.432 51.3906 112.824 51.3906C111.072 51.3906 110.004 50.5506 109.968 49.1706H111.396C111.48 49.8186 111.936 50.2026 112.788 50.2026C113.484 50.2026 113.904 49.9506 113.904 49.4706C113.904 49.0986 113.652 48.8946 113.04 48.7866L112.104 48.6306C110.784 48.3906 110.112 47.8026 110.112 46.8546C110.112 45.7266 111.036 44.9586 112.584 44.9586C114.132 44.9586 115.164 45.7266 115.248 47.0466H113.784C113.724 46.4706 113.304 46.1106 112.572 46.1106C111.9 46.1106 111.588 46.3986 111.588 46.7946C111.588 47.1426 111.84 47.3466 112.548 47.4786L113.568 47.6706ZM121.198 51.4026C119.866 51.4026 119.062 50.6106 119.062 49.5066C119.062 48.4386 119.794 47.7546 121.186 47.6466L122.602 47.5506C122.89 47.5266 123.058 47.3946 123.058 47.0586C123.058 46.4466 122.59 46.1706 121.918 46.1706C121.15 46.1706 120.754 46.5306 120.67 47.0946H119.194C119.338 45.7386 120.262 44.9466 121.93 44.9466C123.586 44.9466 124.57 45.7386 124.57 47.3826V49.9146H125.062V51.2106H124.45C123.73 51.2106 123.346 50.8386 123.298 50.1426C122.914 51.0186 122.122 51.4026 121.198 51.4026ZM121.51 50.1786C122.422 50.1786 123.07 49.5546 123.07 48.7386V48.4986L121.51 48.6186C120.85 48.6666 120.598 48.9906 120.598 49.4226C120.598 49.9026 120.934 50.1786 121.51 50.1786ZM128.602 53.6106C126.766 53.6106 125.818 52.5666 125.686 51.2706H127.174C127.294 51.9546 127.762 52.3986 128.602 52.3986C129.538 52.3986 130.114 51.8466 130.114 50.8986V50.0946C129.67 50.6466 129.01 50.9466 128.206 50.9466C126.622 50.9466 125.542 49.7946 125.542 47.9586C125.542 46.1106 126.622 44.9586 128.206 44.9586C129.094 44.9586 129.79 45.3186 130.234 45.9666V45.1506H131.542V50.4666C131.542 52.3866 130.57 53.6106 128.602 53.6106ZM128.554 49.7346C129.502 49.7346 130.138 49.0146 130.138 47.9586C130.138 46.8906 129.502 46.1826 128.554 46.1826C127.606 46.1826 127.006 46.8906 127.006 47.9586C127.006 49.0266 127.606 49.7346 128.554 49.7346ZM135.519 51.4026C133.575 51.4026 132.339 50.1186 132.339 48.1746C132.339 46.2306 133.575 44.9466 135.519 44.9466C137.439 44.9466 138.675 46.2306 138.675 48.1746C138.675 50.1186 137.439 51.4026 135.519 51.4026ZM135.519 50.0946C136.479 50.0946 137.115 49.3386 137.115 48.1746C137.115 47.0106 136.479 46.2426 135.519 46.2426C134.547 46.2426 133.911 47.0106 133.911 48.1746C133.911 49.3386 134.547 50.0946 135.519 50.0946Z" fill="#AEAEAE"/>
<path d="M88.4 70.4206C85.67 70.4206 83.934 69.0066 83.934 66.4866H85.824C85.824 68.0686 86.748 68.7966 88.372 68.7966C89.8 68.7966 90.444 68.2366 90.444 67.4386C90.444 66.7246 89.94 66.3466 88.89 66.1506L87.518 65.8986C85.292 65.5066 84.298 64.6106 84.298 63.1126C84.298 61.3206 85.712 60.2006 88.008 60.2006C90.486 60.2006 92.04 61.5026 92.04 63.6586H90.22C90.192 62.3846 89.296 61.7826 87.98 61.7826C86.748 61.7826 86.174 62.3146 86.174 63.0426C86.174 63.7286 86.678 64.0506 87.784 64.2606L89.114 64.4986C91.354 64.9186 92.334 65.8006 92.334 67.3546C92.334 69.2726 90.864 70.4206 88.4 70.4206ZM95.5438 70.4346C93.9898 70.4346 93.0518 69.5106 93.0518 68.2226C93.0518 66.9766 93.9058 66.1786 95.5298 66.0526L97.1818 65.9406C97.5178 65.9126 97.7138 65.7586 97.7138 65.3666C97.7138 64.6526 97.1678 64.3306 96.3838 64.3306C95.4878 64.3306 95.0258 64.7506 94.9278 65.4086H93.2058C93.3738 63.8266 94.4518 62.9026 96.3978 62.9026C98.3298 62.9026 99.4778 63.8266 99.4778 65.7446V68.6986H100.052V70.2106H99.3378C98.4978 70.2106 98.0498 69.7766 97.9938 68.9646C97.5458 69.9866 96.6218 70.4346 95.5438 70.4346ZM95.9078 69.0066C96.9718 69.0066 97.7278 68.2786 97.7278 67.3266V67.0466L95.9078 67.1866C95.1378 67.2426 94.8438 67.6206 94.8438 68.1246C94.8438 68.6846 95.2358 69.0066 95.9078 69.0066ZM102.713 70.2106C101.509 70.2106 100.879 69.5806 100.879 68.4186V60.4106H102.671V68.6986H103.427V70.2106H102.713ZM106.495 70.4346C104.941 70.4346 104.003 69.5106 104.003 68.2226C104.003 66.9766 104.857 66.1786 106.481 66.0526L108.133 65.9406C108.469 65.9126 108.665 65.7586 108.665 65.3666C108.665 64.6526 108.119 64.3306 107.335 64.3306C106.439 64.3306 105.977 64.7506 105.879 65.4086H104.157C104.325 63.8266 105.403 62.9026 107.349 62.9026C109.281 62.9026 110.429 63.8266 110.429 65.7446V68.6986H111.003V70.2106H110.289C109.449 70.2106 109.001 69.7766 108.945 68.9646C108.497 69.9866 107.573 70.4346 106.495 70.4346ZM106.859 69.0066C107.923 69.0066 108.679 68.2786 108.679 67.3266V67.0466L106.859 67.1866C106.089 67.2426 105.795 67.6206 105.795 68.1246C105.795 68.6846 106.187 69.0066 106.859 69.0066ZM111.857 64.9186C111.857 63.7566 112.487 63.1266 113.691 63.1266H115.987V64.6386H113.649V70.2106H111.857V64.9186ZM118.878 70.6026C119.018 70.2246 119.018 69.9866 118.878 69.6506L116.274 63.1266H118.164L119.914 67.9706H119.97L121.552 63.1266H123.4L119.872 73.0106H118.024L118.878 70.6026Z" fill="black"/>
<path d="M287.452 61.2106V57.7526H286.64V56.7166H287.452V55.7086H286.64V54.6726H287.452V51.2146H289.65L290.742 54.6726H292.016V51.2146H293.57V54.6726H294.368V55.7086H293.57V56.7166H294.368V57.7526H293.57V61.2106H291.358L290.238 57.7526H289.006V61.2106H287.452ZM289.006 56.7166H289.93L289.622 55.7086H288.978L289.006 56.7166ZM292.058 59.0266H292.128L292.072 57.7526H291.694L292.058 59.0266ZM288.95 54.6726H289.342L288.936 53.3286H288.88L288.95 54.6726ZM291.4 56.7166H292.044L292.016 55.7086H291.078L291.4 56.7166ZM298.768 55.7646C299.524 55.2606 299.944 54.8266 299.944 54.1266C299.944 53.3846 299.454 52.9366 298.614 52.9366C297.648 52.9366 297.13 53.5666 297.13 54.7426H295.058C295.058 52.4046 296.528 51.2006 298.642 51.2006C300.77 51.2006 302.072 52.4186 302.072 54.2106C302.072 55.4426 301.456 56.2546 300.084 57.1506L298.376 58.2706C297.886 58.5926 297.522 58.9846 297.284 59.4746H302.142V61.2106H294.834C294.834 59.3346 295.436 57.9206 297.046 56.8706L298.768 55.7646ZM304.919 58.0886C304.961 59.1246 305.605 59.6846 306.571 59.6846C307.579 59.6846 308.195 59.0686 308.195 58.0046C308.195 56.8986 307.509 56.2546 306.501 56.2546C305.815 56.2546 305.339 56.5626 305.101 56.9266H303.057L303.645 51.4106H309.805V53.1466H305.325L305.087 55.4006C305.507 54.9106 306.137 54.6306 307.005 54.6306C308.839 54.6306 310.323 55.8766 310.323 57.9906C310.323 60.0066 308.965 61.4206 306.627 61.4206C304.415 61.4206 302.889 60.1606 302.847 58.0886H304.919ZM314.732 61.4206C312.394 61.4206 311.036 59.5306 311.036 56.3106C311.036 53.0906 312.394 51.2006 314.732 51.2006C317.084 51.2006 318.442 53.0906 318.442 56.3106C318.442 59.5306 317.084 61.4206 314.732 61.4206ZM314.732 59.6846C315.768 59.6846 316.314 58.5226 316.314 56.3246C316.314 54.1126 315.768 52.9366 314.732 52.9366C313.71 52.9366 313.15 54.1126 313.15 56.3246C313.15 58.5226 313.71 59.6846 314.732 59.6846ZM319.466 61.7006C319.564 61.4906 319.55 61.3086 319.354 61.1826C319.046 60.9726 318.864 60.6506 318.864 60.2446C318.864 59.5866 319.354 59.0826 320.068 59.0826C320.796 59.0826 321.314 59.5866 321.314 60.3426C321.314 60.6646 321.216 61.0006 321.006 61.4906L320.04 63.7026H318.556L319.466 61.7006ZM326.125 55.7646C326.881 55.2606 327.301 54.8266 327.301 54.1266C327.301 53.3846 326.811 52.9366 325.971 52.9366C325.005 52.9366 324.487 53.5666 324.487 54.7426H322.415C322.415 52.4046 323.885 51.2006 325.999 51.2006C328.127 51.2006 329.429 52.4186 329.429 54.2106C329.429 55.4426 328.813 56.2546 327.441 57.1506L325.733 58.2706C325.243 58.5926 324.879 58.9846 324.641 59.4746H329.499V61.2106H322.191C322.191 59.3346 322.793 57.9206 324.403 56.8706L326.125 55.7646ZM333.914 61.4206C331.576 61.4206 330.218 59.5306 330.218 56.3106C330.218 53.0906 331.576 51.2006 333.914 51.2006C336.266 51.2006 337.624 53.0906 337.624 56.3106C337.624 59.5306 336.266 61.4206 333.914 61.4206ZM333.914 59.6846C334.95 59.6846 335.496 58.5226 335.496 56.3246C335.496 54.1126 334.95 52.9366 333.914 52.9366C332.892 52.9366 332.332 54.1126 332.332 56.3246C332.332 58.5226 332.892 59.6846 333.914 59.6846ZM342.144 61.4206C339.806 61.4206 338.448 59.5306 338.448 56.3106C338.448 53.0906 339.806 51.2006 342.144 51.2006C344.496 51.2006 345.854 53.0906 345.854 56.3106C345.854 59.5306 344.496 61.4206 342.144 61.4206ZM342.144 59.6846C343.18 59.6846 343.726 58.5226 343.726 56.3246C343.726 54.1126 343.18 52.9366 342.144 52.9366C341.122 52.9366 340.562 54.1126 340.562 56.3246C340.562 58.5226 341.122 59.6846 342.144 59.6846Z" fill="#F04343"/>
<rect x="19.5" y="109.211" width="343" height="72" rx="12" fill="#F9F9F9"/>
<rect x="35.5" y="125.211" width="40" height="40" rx="20" fill="#F1F5EB"/>
<path d="M50.0001 150.98L62.6737 139.694M62.6737 139.694L62.1862 148.112M62.6737 139.694L54.5792 139.225" stroke="#F04343" stroke-width="2" stroke-linejoin="round"/>
<path d="M87.184 134.651C87.88 134.183 88.252 133.763 88.252 133.115C88.252 132.383 87.772 131.927 86.968 131.927C86.068 131.927 85.552 132.503 85.552 133.619H84.016C84.016 131.663 85.252 130.631 86.992 130.631C88.732 130.631 89.824 131.675 89.824 133.175C89.824 134.219 89.296 134.939 88.096 135.743L86.704 136.655C86.188 136.991 85.816 137.399 85.6 137.915H89.896V139.211H83.812C83.812 137.603 84.412 136.463 85.78 135.563L87.184 134.651ZM90.8494 139.211V133.139H92.2414V134.015C92.6134 133.307 93.2494 132.947 94.0774 132.947C94.9894 132.947 95.6374 133.379 95.9614 134.135C96.3094 133.367 96.9814 132.947 97.8694 132.947C99.1774 132.947 99.9814 133.847 99.9814 135.323V139.211H98.4454V135.575C98.4454 134.699 98.1214 134.279 97.4854 134.279C96.7894 134.279 96.1894 134.831 96.1894 136.115V139.211H94.6534V135.575C94.6534 134.699 94.3294 134.279 93.6934 134.279C92.9614 134.279 92.3854 134.867 92.3854 136.115V139.211H90.8494ZM100.974 139.211V133.139H102.51V139.211H100.974ZM101.742 132.251C101.202 132.251 100.806 131.879 100.806 131.375C100.806 130.883 101.202 130.487 101.742 130.487C102.282 130.487 102.678 130.883 102.678 131.375C102.678 131.879 102.282 132.251 101.742 132.251ZM107.715 135.647C107.715 134.711 107.343 134.279 106.599 134.279C105.747 134.279 105.147 134.867 105.147 136.187V139.211H103.611V133.139H105.003V134.027C105.387 133.319 106.059 132.947 106.971 132.947C108.399 132.947 109.251 133.847 109.251 135.359V139.211H107.715V135.647ZM113.568 135.671C114.792 135.887 115.44 136.487 115.44 137.471C115.44 138.671 114.432 139.391 112.824 139.391C111.072 139.391 110.004 138.551 109.968 137.171H111.396C111.48 137.819 111.936 138.203 112.788 138.203C113.484 138.203 113.904 137.951 113.904 137.471C113.904 137.099 113.652 136.895 113.04 136.787L112.104 136.631C110.784 136.391 110.112 135.803 110.112 134.855C110.112 133.727 111.036 132.959 112.584 132.959C114.132 132.959 115.164 133.727 115.248 135.047H113.784C113.724 134.471 113.304 134.111 112.572 134.111C111.9 134.111 111.588 134.399 111.588 134.795C111.588 135.143 111.84 135.347 112.548 135.479L113.568 135.671ZM121.198 139.403C119.866 139.403 119.062 138.611 119.062 137.507C119.062 136.439 119.794 135.755 121.186 135.647L122.602 135.551C122.89 135.527 123.058 135.395 123.058 135.059C123.058 134.447 122.59 134.171 121.918 134.171C121.15 134.171 120.754 134.531 120.67 135.095H119.194C119.338 133.739 120.262 132.947 121.93 132.947C123.586 132.947 124.57 133.739 124.57 135.383V137.915H125.062V139.211H124.45C123.73 139.211 123.346 138.839 123.298 138.143C122.914 139.019 122.122 139.403 121.198 139.403ZM121.51 138.179C122.422 138.179 123.07 137.555 123.07 136.739V136.499L121.51 136.619C120.85 136.667 120.598 136.991 120.598 137.423C120.598 137.903 120.934 138.179 121.51 138.179ZM128.602 141.611C126.766 141.611 125.818 140.567 125.686 139.271H127.174C127.294 139.955 127.762 140.399 128.602 140.399C129.538 140.399 130.114 139.847 130.114 138.899V138.095C129.67 138.647 129.01 138.947 128.206 138.947C126.622 138.947 125.542 137.795 125.542 135.959C125.542 134.111 126.622 132.959 128.206 132.959C129.094 132.959 129.79 133.319 130.234 133.967V133.151H131.542V138.467C131.542 140.387 130.57 141.611 128.602 141.611ZM128.554 137.735C129.502 137.735 130.138 137.015 130.138 135.959C130.138 134.891 129.502 134.183 128.554 134.183C127.606 134.183 127.006 134.891 127.006 135.959C127.006 137.027 127.606 137.735 128.554 137.735ZM135.519 139.403C133.575 139.403 132.339 138.119 132.339 136.175C132.339 134.231 133.575 132.947 135.519 132.947C137.439 132.947 138.675 134.231 138.675 136.175C138.675 138.119 137.439 139.403 135.519 139.403ZM135.519 138.095C136.479 138.095 137.115 137.339 137.115 136.175C137.115 135.011 136.479 134.243 135.519 134.243C134.547 134.243 133.911 135.011 133.911 136.175C133.911 137.339 134.547 138.095 135.519 138.095Z" fill="#AEAEAE"/>
<path d="M84.172 158.211V148.411H91.354V150.077H86.062V152.471H90.864V154.137H86.062V158.211H84.172ZM95.2569 158.435C92.9889 158.435 91.5469 156.937 91.5469 154.669C91.5469 152.401 92.9889 150.903 95.2569 150.903C97.4969 150.903 98.9389 152.401 98.9389 154.669C98.9389 156.937 97.4969 158.435 95.2569 158.435ZM95.2569 156.909C96.3769 156.909 97.1189 156.027 97.1189 154.669C97.1189 153.311 96.3769 152.415 95.2569 152.415C94.1229 152.415 93.3809 153.311 93.3809 154.669C93.3809 156.027 94.1229 156.909 95.2569 156.909ZM103.323 158.435C101.055 158.435 99.6133 156.937 99.6133 154.669C99.6133 152.401 101.055 150.903 103.323 150.903C105.563 150.903 107.005 152.401 107.005 154.669C107.005 156.937 105.563 158.435 103.323 158.435ZM103.323 156.909C104.443 156.909 105.185 156.027 105.185 154.669C105.185 153.311 104.443 152.415 103.323 152.415C102.189 152.415 101.447 153.311 101.447 154.669C101.447 156.027 102.189 156.909 103.323 156.909ZM110.872 158.435C108.982 158.435 107.68 156.993 107.68 154.669C107.68 152.331 108.982 150.903 110.872 150.903C111.838 150.903 112.636 151.295 113.154 151.995V148.411H114.932V158.211H113.308V157.161C112.79 157.973 111.936 158.435 110.872 158.435ZM111.334 156.909C112.44 156.909 113.196 156.027 113.196 154.669C113.196 153.311 112.44 152.415 111.334 152.415C110.214 152.415 109.514 153.311 109.514 154.669C109.514 156.027 110.214 156.909 111.334 156.909ZM124.002 158.421C121.272 158.421 119.536 157.007 119.536 154.487H121.426C121.426 156.069 122.35 156.797 123.974 156.797C125.402 156.797 126.046 156.237 126.046 155.439C126.046 154.725 125.542 154.347 124.492 154.151L123.12 153.899C120.894 153.507 119.9 152.611 119.9 151.113C119.9 149.321 121.314 148.201 123.61 148.201C126.088 148.201 127.642 149.503 127.642 151.659H125.822C125.794 150.385 124.898 149.783 123.582 149.783C122.35 149.783 121.776 150.315 121.776 151.043C121.776 151.729 122.28 152.051 123.386 152.261L124.716 152.499C126.956 152.919 127.936 153.801 127.936 155.355C127.936 157.273 126.466 158.421 124.002 158.421ZM132.268 158.211C130.588 158.211 129.664 157.287 129.664 155.733V152.639H128.376V151.127H129.202C129.58 151.127 129.776 150.931 129.776 150.567V148.971H131.414V151.127H132.898V152.639H131.456V156.279C131.456 156.573 131.596 156.699 131.89 156.699H133.08V158.211H132.268ZM136.316 158.435C134.734 158.435 133.754 157.385 133.754 155.621V151.127H135.546V155.285C135.546 156.377 135.966 156.881 136.764 156.881C137.688 156.881 138.388 156.195 138.388 154.655V151.127H140.18V158.211H138.556V157.147C138.122 158.015 137.338 158.435 136.316 158.435ZM142.24 158.211V152.611H140.938L140.924 151.127H141.82C142.086 151.127 142.212 150.987 142.24 150.735V150.497C142.352 149.419 143.052 148.411 144.746 148.411H145.516V149.895H144.382C144.074 149.895 143.948 150.021 143.948 150.315V151.127H145.39V152.611H143.976V158.211H142.24ZM146.338 150.889C146.338 149.335 147.248 148.411 148.942 148.411H149.67V149.923H148.508C148.214 149.923 148.088 150.049 148.088 150.343V151.127H149.544V152.639H148.13V158.211H146.338V150.889Z" fill="black"/>
<path d="M295.452 149.211V145.753H294.64V144.717H295.452V143.709H294.64V142.673H295.452V139.215H297.65L298.742 142.673H300.016V139.215H301.57V142.673H302.368V143.709H301.57V144.717H302.368V145.753H301.57V149.211H299.358L298.238 145.753H297.006V149.211H295.452ZM297.006 144.717H297.93L297.622 143.709H296.978L297.006 144.717ZM300.058 147.027H300.128L300.072 145.753H299.694L300.058 147.027ZM296.95 142.673H297.342L296.936 141.329H296.88L296.95 142.673ZM299.4 144.717H300.044L300.016 143.709H299.078L299.4 144.717ZM304.038 149.211L307.846 141.147H302.792V139.411H310.226V140.923L306.32 149.211H304.038ZM314.31 149.421C311.972 149.421 310.614 147.531 310.614 144.311C310.614 141.091 311.972 139.201 314.31 139.201C316.662 139.201 318.02 141.091 318.02 144.311C318.02 147.531 316.662 149.421 314.31 149.421ZM314.31 147.685C315.346 147.685 315.892 146.523 315.892 144.325C315.892 142.113 315.346 140.937 314.31 140.937C313.288 140.937 312.728 142.113 312.728 144.325C312.728 146.523 313.288 147.685 314.31 147.685ZM319.044 149.701C319.142 149.491 319.128 149.309 318.932 149.183C318.624 148.973 318.442 148.651 318.442 148.245C318.442 147.587 318.932 147.083 319.646 147.083C320.374 147.083 320.892 147.587 320.892 148.343C320.892 148.665 320.794 149.001 320.584 149.491L319.618 151.703H318.134L319.044 149.701ZM325.703 143.765C326.459 143.261 326.879 142.827 326.879 142.127C326.879 141.385 326.389 140.937 325.549 140.937C324.583 140.937 324.065 141.567 324.065 142.743H321.993C321.993 140.405 323.463 139.201 325.577 139.201C327.705 139.201 329.007 140.419 329.007 142.211C329.007 143.443 328.391 144.255 327.019 145.151L325.311 146.271C324.821 146.593 324.457 146.985 324.219 147.475H329.077V149.211H321.769C321.769 147.335 322.371 145.921 323.981 144.871L325.703 143.765ZM333.492 149.421C331.154 149.421 329.796 147.531 329.796 144.311C329.796 141.091 331.154 139.201 333.492 139.201C335.844 139.201 337.202 141.091 337.202 144.311C337.202 147.531 335.844 149.421 333.492 149.421ZM333.492 147.685C334.528 147.685 335.074 146.523 335.074 144.325C335.074 142.113 334.528 140.937 333.492 140.937C332.47 140.937 331.91 142.113 331.91 144.325C331.91 146.523 332.47 147.685 333.492 147.685ZM341.722 149.421C339.384 149.421 338.026 147.531 338.026 144.311C338.026 141.091 339.384 139.201 341.722 139.201C344.074 139.201 345.432 141.091 345.432 144.311C345.432 147.531 344.074 149.421 341.722 149.421ZM341.722 147.685C342.758 147.685 343.304 146.523 343.304 144.325C343.304 142.113 342.758 140.937 341.722 140.937C340.7 140.937 340.14 142.113 340.14 144.325C340.14 146.523 340.7 147.685 341.722 147.685Z" fill="#F04343"/>
<rect x="19.5" y="197.211" width="343" height="72" rx="12" fill="#F9F9F9"/>
<rect x="35.5" y="213.211" width="40" height="40" rx="20" fill="#F1F5EB"/>
<path d="M50 227L62 239M62 239H53.5676M62 239V230.892" stroke="#2FE6C8" stroke-width="2" stroke-linejoin="round"/>
<path d="M83.74 221.787V220.491H85.516C85.84 220.491 86.008 220.323 86.008 220.011V218.811H87.544V227.211H86.008V222.267C86.008 221.955 85.84 221.787 85.516 221.787H83.74ZM91.6784 227.391C89.7224 227.391 88.5824 225.771 88.5824 223.011C88.5824 220.251 89.7224 218.631 91.6784 218.631C93.6344 218.631 94.7744 220.251 94.7744 223.011C94.7744 225.771 93.6344 227.391 91.6784 227.391ZM91.6784 226.095C92.6624 226.095 93.2024 225.015 93.2024 223.023C93.2024 221.019 92.6624 219.927 91.6784 219.927C90.6944 219.927 90.1544 221.019 90.1544 223.023C90.1544 225.015 90.6944 226.095 91.6784 226.095ZM98.701 227.211V221.139H100.093V222.015C100.465 221.307 101.101 220.947 101.929 220.947C102.841 220.947 103.489 221.379 103.813 222.135C104.161 221.367 104.833 220.947 105.721 220.947C107.029 220.947 107.833 221.847 107.833 223.323V227.211H106.297V223.575C106.297 222.699 105.973 222.279 105.337 222.279C104.641 222.279 104.041 222.831 104.041 224.115V227.211H102.505V223.575C102.505 222.699 102.181 222.279 101.545 222.279C100.813 222.279 100.237 222.867 100.237 224.115V227.211H98.701ZM108.826 227.211V221.139H110.362V227.211H108.826ZM109.594 220.251C109.054 220.251 108.658 219.879 108.658 219.375C108.658 218.883 109.054 218.487 109.594 218.487C110.134 218.487 110.53 218.883 110.53 219.375C110.53 219.879 110.134 220.251 109.594 220.251ZM115.567 223.647C115.567 222.711 115.195 222.279 114.451 222.279C113.599 222.279 112.999 222.867 112.999 224.187V227.211H111.463V221.139H112.855V222.027C113.239 221.319 113.911 220.947 114.823 220.947C116.251 220.947 117.103 221.847 117.103 223.359V227.211H115.567V223.647ZM121.42 223.671C122.644 223.887 123.292 224.487 123.292 225.471C123.292 226.671 122.284 227.391 120.676 227.391C118.924 227.391 117.856 226.551 117.82 225.171H119.248C119.332 225.819 119.788 226.203 120.64 226.203C121.336 226.203 121.756 225.951 121.756 225.471C121.756 225.099 121.504 224.895 120.892 224.787L119.956 224.631C118.636 224.391 117.964 223.803 117.964 222.855C117.964 221.727 118.888 220.959 120.436 220.959C121.984 220.959 123.016 221.727 123.1 223.047H121.636C121.576 222.471 121.156 222.111 120.424 222.111C119.752 222.111 119.44 222.399 119.44 222.795C119.44 223.143 119.692 223.347 120.4 223.479L121.42 223.671ZM129.05 227.403C127.718 227.403 126.914 226.611 126.914 225.507C126.914 224.439 127.646 223.755 129.038 223.647L130.454 223.551C130.742 223.527 130.91 223.395 130.91 223.059C130.91 222.447 130.442 222.171 129.77 222.171C129.002 222.171 128.606 222.531 128.522 223.095H127.046C127.19 221.739 128.114 220.947 129.782 220.947C131.438 220.947 132.422 221.739 132.422 223.383V225.915H132.914V227.211H132.302C131.582 227.211 131.198 226.839 131.15 226.143C130.766 227.019 129.974 227.403 129.05 227.403ZM129.362 226.179C130.274 226.179 130.922 225.555 130.922 224.739V224.499L129.362 224.619C128.702 224.667 128.45 224.991 128.45 225.423C128.45 225.903 128.786 226.179 129.362 226.179ZM136.453 229.611C134.617 229.611 133.669 228.567 133.537 227.271H135.025C135.145 227.955 135.613 228.399 136.453 228.399C137.389 228.399 137.965 227.847 137.965 226.899V226.095C137.521 226.647 136.861 226.947 136.057 226.947C134.473 226.947 133.393 225.795 133.393 223.959C133.393 222.111 134.473 220.959 136.057 220.959C136.945 220.959 137.641 221.319 138.085 221.967V221.151H139.393V226.467C139.393 228.387 138.421 229.611 136.453 229.611ZM136.405 225.735C137.353 225.735 137.989 225.015 137.989 223.959C137.989 222.891 137.353 222.183 136.405 222.183C135.457 222.183 134.857 222.891 134.857 223.959C134.857 225.027 135.457 225.735 136.405 225.735ZM143.37 227.403C141.426 227.403 140.19 226.119 140.19 224.175C140.19 222.231 141.426 220.947 143.37 220.947C145.29 220.947 146.526 222.231 146.526 224.175C146.526 226.119 145.29 227.403 143.37 227.403ZM143.37 226.095C144.33 226.095 144.966 225.339 144.966 224.175C144.966 223.011 144.33 222.243 143.37 222.243C142.398 222.243 141.762 223.011 141.762 224.175C141.762 225.339 142.398 226.095 143.37 226.095Z" fill="#AEAEAE"/>
<path d="M88.68 246.421C85.754 246.421 83.836 244.405 83.836 241.311C83.836 238.217 85.74 236.201 88.666 236.201C91.27 236.201 93.062 237.839 93.244 240.303H91.326C91.172 238.819 90.164 237.867 88.68 237.867C86.93 237.867 85.782 239.225 85.782 241.311C85.782 243.397 86.93 244.755 88.68 244.755C90.192 244.755 91.284 243.747 91.424 242.277H93.328C93.16 244.769 91.326 246.421 88.68 246.421ZM97.6905 246.435C95.4225 246.435 93.9805 244.937 93.9805 242.669C93.9805 240.401 95.4225 238.903 97.6905 238.903C99.9305 238.903 101.373 240.401 101.373 242.669C101.373 244.937 99.9305 246.435 97.6905 246.435ZM97.6905 244.909C98.8105 244.909 99.5525 244.027 99.5525 242.669C99.5525 241.311 98.8105 240.415 97.6905 240.415C96.5565 240.415 95.8145 241.311 95.8145 242.669C95.8145 244.027 96.5565 244.909 97.6905 244.909ZM103.806 246.211L101.426 239.127H103.316L104.982 244.391H105.038L106.69 239.127H108.594L106.2 246.211H103.806ZM112.249 246.435C110.023 246.435 108.609 244.951 108.609 242.669C108.609 240.415 110.009 238.903 112.249 238.903C114.671 238.903 115.987 240.667 115.623 243.145H110.401C110.499 244.321 111.171 244.993 112.249 244.993C113.131 244.993 113.663 244.531 113.803 244.069H115.581C115.301 245.441 114.069 246.435 112.249 246.435ZM110.443 241.927H113.887C113.873 240.961 113.257 240.303 112.207 240.303C111.269 240.303 110.611 240.863 110.443 241.927ZM121.417 242.053C121.417 240.961 120.983 240.457 120.115 240.457C119.121 240.457 118.421 241.143 118.421 242.683V246.211H116.629V239.127H118.253V240.163C118.701 239.337 119.485 238.903 120.549 238.903C122.215 238.903 123.209 239.953 123.209 241.717V246.211H121.417V242.053ZM126.565 246.435C125.011 246.435 124.073 245.511 124.073 244.223C124.073 242.977 124.927 242.179 126.551 242.053L128.203 241.941C128.539 241.913 128.735 241.759 128.735 241.367C128.735 240.653 128.189 240.331 127.405 240.331C126.509 240.331 126.047 240.751 125.949 241.409H124.227C124.395 239.827 125.473 238.903 127.419 238.903C129.351 238.903 130.499 239.827 130.499 241.745V244.699H131.073V246.211H130.359C129.519 246.211 129.071 245.777 129.015 244.965C128.567 245.987 127.643 246.435 126.565 246.435ZM126.929 245.007C127.993 245.007 128.749 244.279 128.749 243.327V243.047L126.929 243.187C126.159 243.243 125.865 243.621 125.865 244.125C125.865 244.685 126.257 245.007 126.929 245.007ZM136.743 242.053C136.743 240.961 136.309 240.457 135.441 240.457C134.447 240.457 133.747 241.143 133.747 242.683V246.211H131.955V239.127H133.579V240.163C134.027 239.337 134.811 238.903 135.875 238.903C137.541 238.903 138.535 239.953 138.535 241.717V246.211H136.743V242.053ZM142.973 246.211C141.293 246.211 140.369 245.287 140.369 243.733V240.639H139.081V239.127H139.907C140.285 239.127 140.481 238.931 140.481 238.567V236.971H142.119V239.127H143.603V240.639H142.161V244.279C142.161 244.573 142.301 244.699 142.595 244.699H143.785V246.211H142.973ZM152.426 246.211L149.92 238.273V246.211H148.156V236.411H150.956L153.294 243.943L155.618 236.411H158.404V246.211H156.64V238.329L154.162 246.211H152.426ZM159.75 246.211V236.411H166.932V238.077H161.64V240.471H166.442V242.137H161.64V246.211H159.75ZM167.776 246.211V236.411H172.732C174.412 236.411 175.56 237.335 175.56 238.805C175.56 239.981 174.818 240.597 174.16 240.849C175.252 241.283 175.896 242.137 175.896 243.397C175.896 245.147 174.65 246.211 172.802 246.211H167.776ZM172.48 244.587C173.418 244.587 173.964 244.125 173.964 243.327C173.964 242.501 173.418 242.011 172.48 242.011H169.666V244.587H172.48ZM172.326 240.429C173.194 240.429 173.712 239.981 173.712 239.211C173.712 238.455 173.194 238.035 172.326 238.035H169.666V240.429H172.326Z" fill="black"/>
<path d="M287.452 237.211V233.753H286.64V232.717H287.452V231.709H286.64V230.673H287.452V227.215H289.65L290.742 230.673H292.016V227.215H293.57V230.673H294.368V231.709H293.57V232.717H294.368V233.753H293.57V237.211H291.358L290.238 233.753H289.006V237.211H287.452ZM289.006 232.717H289.93L289.622 231.709H288.978L289.006 232.717ZM292.058 235.027H292.128L292.072 233.753H291.694L292.058 235.027ZM288.95 230.673H289.342L288.936 229.329H288.88L288.95 230.673ZM291.4 232.717H292.044L292.016 231.709H291.078L291.4 232.717ZM298.74 237.421C296.864 237.421 294.834 236.273 294.834 232.381C294.834 229.105 296.276 227.201 298.768 227.201C300.63 227.201 301.862 228.279 302.086 229.973H300.042C299.93 229.343 299.44 228.937 298.684 228.937C297.522 228.937 296.892 229.875 296.78 231.807H296.836C297.27 231.149 298.026 230.799 299.02 230.799C300.896 230.799 302.226 232.073 302.226 234.019C302.226 236.035 300.798 237.421 298.74 237.421ZM298.642 235.685C299.538 235.685 300.14 235.041 300.14 234.047C300.14 233.053 299.51 232.423 298.586 232.423C297.662 232.423 297.088 233.039 297.088 233.991C297.088 235.013 297.732 235.685 298.642 235.685ZM306.625 237.421C304.287 237.421 302.929 235.531 302.929 232.311C302.929 229.091 304.287 227.201 306.625 227.201C308.977 227.201 310.335 229.091 310.335 232.311C310.335 235.531 308.977 237.421 306.625 237.421ZM306.625 235.685C307.661 235.685 308.207 234.523 308.207 232.325C308.207 230.113 307.661 228.937 306.625 228.937C305.603 228.937 305.043 230.113 305.043 232.325C305.043 234.523 305.603 235.685 306.625 235.685ZM314.855 237.421C312.517 237.421 311.159 235.531 311.159 232.311C311.159 229.091 312.517 227.201 314.855 227.201C317.207 227.201 318.565 229.091 318.565 232.311C318.565 235.531 317.207 237.421 314.855 237.421ZM314.855 235.685C315.891 235.685 316.437 234.523 316.437 232.325C316.437 230.113 315.891 228.937 314.855 228.937C313.833 228.937 313.273 230.113 313.273 232.325C313.273 234.523 313.833 235.685 314.855 235.685ZM319.589 237.701C319.687 237.491 319.673 237.309 319.477 237.183C319.169 236.973 318.987 236.651 318.987 236.245C318.987 235.587 319.477 235.083 320.191 235.083C320.919 235.083 321.437 235.587 321.437 236.343C321.437 236.665 321.339 237.001 321.129 237.491L320.163 239.703H318.679L319.589 237.701ZM326.248 231.765C327.004 231.261 327.424 230.827 327.424 230.127C327.424 229.385 326.934 228.937 326.094 228.937C325.128 228.937 324.61 229.567 324.61 230.743H322.538C322.538 228.405 324.008 227.201 326.122 227.201C328.25 227.201 329.552 228.419 329.552 230.211C329.552 231.443 328.936 232.255 327.564 233.151L325.856 234.271C325.366 234.593 325.002 234.985 324.764 235.475H329.622V237.211H322.314C322.314 235.335 322.916 233.921 324.526 232.871L326.248 231.765ZM334.037 237.421C331.699 237.421 330.341 235.531 330.341 232.311C330.341 229.091 331.699 227.201 334.037 227.201C336.389 227.201 337.747 229.091 337.747 232.311C337.747 235.531 336.389 237.421 334.037 237.421ZM334.037 235.685C335.073 235.685 335.619 234.523 335.619 232.325C335.619 230.113 335.073 228.937 334.037 228.937C333.015 228.937 332.455 230.113 332.455 232.325C332.455 234.523 333.015 235.685 334.037 235.685ZM342.267 237.421C339.929 237.421 338.571 235.531 338.571 232.311C338.571 229.091 339.929 227.201 342.267 227.201C344.619 227.201 345.977 229.091 345.977 232.311C345.977 235.531 344.619 237.421 342.267 237.421ZM342.267 235.685C343.303 235.685 343.849 234.523 343.849 232.325C343.849 230.113 343.303 228.937 342.267 228.937C341.245 228.937 340.685 230.113 340.685 232.325C340.685 234.523 341.245 235.685 342.267 235.685Z" fill="#1D9B5E"/>
<rect x="58.1238" y="298.211" width="265.752" height="40.5789" rx="6.36533" fill="#1D9B5E"/>
<path d="M152.063 322.191C149.734 322.191 148.219 320.905 148.219 318.665H149.377C149.377 320.37 150.37 321.147 152.038 321.147C153.566 321.147 154.279 320.485 154.279 319.543C154.279 318.715 153.744 318.321 152.509 318.079L151.312 317.863C149.314 317.468 148.537 316.666 148.537 315.456C148.537 313.929 149.746 312.898 151.732 312.898C153.795 312.898 155.195 314.018 155.195 315.966H154.049C154.037 314.565 153.133 313.929 151.732 313.929C150.357 313.929 149.695 314.527 149.695 315.418C149.695 316.208 150.23 316.551 151.554 316.806L152.738 317.035C154.66 317.404 155.45 318.244 155.45 319.518C155.45 321.122 154.189 322.191 152.063 322.191ZM159.304 322.191C157.407 322.191 156.21 320.867 156.21 318.817C156.21 316.78 157.394 315.418 159.278 315.418C161.239 315.418 162.41 316.895 162.142 319.123H157.33C157.394 320.447 158.107 321.249 159.304 321.249C160.309 321.249 160.818 320.663 160.971 320.192H162.066C161.773 321.313 160.844 322.191 159.304 322.191ZM157.356 318.244H161.048C161.086 317.213 160.449 316.348 159.227 316.348C158.196 316.348 157.483 317.073 157.356 318.244ZM167.61 318.181C167.61 316.959 167.139 316.386 166.171 316.386C165 316.386 164.313 317.213 164.313 318.881V322H163.218V315.609H164.211V316.717C164.605 315.864 165.344 315.418 166.349 315.418C167.813 315.418 168.717 316.348 168.717 317.926V322H167.61V318.181ZM172.489 322.191C170.77 322.191 169.624 320.867 169.624 318.805C169.624 316.742 170.77 315.418 172.489 315.418C173.469 315.418 174.207 315.838 174.666 316.602V313.089H175.761V322H174.755V320.867C174.309 321.72 173.533 322.191 172.489 322.191ZM172.68 321.223C173.864 321.223 174.678 320.269 174.678 318.805C174.678 317.341 173.864 316.386 172.68 316.386C171.496 316.386 170.757 317.341 170.757 318.805C170.757 320.269 171.496 321.223 172.68 321.223ZM180.374 322V315.609H181.367V316.691C181.736 315.851 182.424 315.418 183.353 315.418C184.346 315.418 185.021 315.902 185.326 316.755C185.683 315.902 186.409 315.418 187.389 315.418C188.738 315.418 189.528 316.348 189.528 317.837V322H188.445V318.155C188.445 316.946 188.025 316.386 187.172 316.386C186.167 316.386 185.505 317.201 185.505 318.856V322H184.41V318.155C184.41 316.946 183.99 316.386 183.137 316.386C182.118 316.386 181.469 317.213 181.469 318.856V322H180.374ZM193.581 322.191C191.684 322.191 190.436 320.854 190.436 318.805C190.436 316.755 191.684 315.418 193.581 315.418C195.49 315.418 196.725 316.755 196.725 318.805C196.725 320.854 195.49 322.191 193.581 322.191ZM193.581 321.223C194.803 321.223 195.592 320.269 195.592 318.805C195.592 317.341 194.803 316.386 193.581 316.386C192.371 316.386 191.569 317.341 191.569 318.805C191.569 320.269 192.371 321.223 193.581 321.223ZM202.122 318.181C202.122 316.959 201.651 316.386 200.683 316.386C199.512 316.386 198.825 317.213 198.825 318.881V322H197.73V315.609H198.723V316.717C199.117 315.864 199.856 315.418 200.861 315.418C202.325 315.418 203.229 316.348 203.229 317.926V322H202.122V318.181ZM207.218 322.191C205.321 322.191 204.124 320.867 204.124 318.817C204.124 316.78 205.308 315.418 207.192 315.418C209.153 315.418 210.324 316.895 210.056 319.123H205.244C205.308 320.447 206.021 321.249 207.218 321.249C208.223 321.249 208.732 320.663 208.885 320.192H209.98C209.687 321.313 208.758 322.191 207.218 322.191ZM205.27 318.244H208.962C209 317.213 208.363 316.348 207.141 316.348C206.11 316.348 205.397 317.073 205.27 318.244ZM212.603 322.293C212.705 321.987 212.705 321.771 212.603 321.491L210.223 315.609H211.381L213.278 320.498H213.329L215.06 315.609H216.206L212.883 324.546H211.75L212.603 322.293Z" fill="white"/>
<path d="M225.301 322.081L228.882 318.5L225.301 314.92" stroke="white" stroke-width="1.1935" stroke-linecap="round" stroke-linejoin="round"/>
</svg>
