<svg width="195" height="222" viewBox="0 0 195 222" fill="none" xmlns="http://www.w3.org/2000/svg">
<path d="M189.333 3C189.333 4.47276 190.527 5.66667 192 5.66667C193.473 5.66667 194.667 4.47276 194.667 3C194.667 1.52724 193.473 0.333333 192 0.333333C190.527 0.333333 189.333 1.52724 189.333 3ZM137.379 3V2.5H136.879V3H137.379ZM137.379 149.861V150.361H137.879V149.861H137.379ZM3 149.861V149.361H2.5V149.861H3ZM0.333333 219C0.333333 220.473 1.52724 221.667 3 221.667C4.47276 221.667 5.66667 220.473 5.66667 219C5.66667 217.527 4.47276 216.333 3 216.333C1.52724 216.333 0.333333 217.527 0.333333 219ZM3 219H3.5V217.079H3H2.5V219H3ZM3 213.238H3.5V209.397H3H2.5V213.238H3ZM3 205.556H3.5V201.715H3H2.5V205.556H3ZM3 197.874H3.5V194.033H3H2.5V197.874H3ZM3 190.192H3.5V186.351H3H2.5V190.192H3ZM3 182.51H3.5V178.669H3H2.5V182.51H3ZM3 174.828H3.5V170.987H3H2.5V174.828H3ZM3 167.146H3.5V163.305H3H2.5V167.146H3ZM3 159.464H3.5V155.622H3H2.5V159.464H3ZM3 151.781H3.5V149.861H3H2.5V151.781H3ZM3 149.861V150.361H4.97615V149.861V149.361H3V149.861ZM8.92846 149.861V150.361H12.8808V149.861V149.361H8.92846V149.861ZM16.8331 149.861V150.361H20.7854V149.861V149.361H16.8331V149.861ZM24.7377 149.861V150.361H28.69V149.861V149.361H24.7377V149.861ZM32.6423 149.861V150.361H36.5946V149.861V149.361H32.6423V149.861ZM40.5469 149.861V150.361H44.4992V149.861V149.361H40.5469V149.861ZM48.4516 149.861V150.361H52.4039V149.861V149.361H48.4516V149.861ZM56.3562 149.861V150.361H60.3085V149.861V149.361H56.3562V149.861ZM64.2608 149.861V150.361H68.2131V149.861V149.361H64.2608V149.861ZM72.1654 149.861V150.361H76.1177V149.861V149.361H72.1654V149.861ZM80.07 149.861V150.361H84.0223V149.861V149.361H80.07V149.861ZM87.9746 149.861V150.361H91.9269V149.861V149.361H87.9746V149.861ZM95.8793 149.861V150.361H99.8316V149.861V149.361H95.8793V149.861ZM103.784 149.861V150.361H107.736V149.861V149.361H103.784V149.861ZM111.688 149.861V150.361H115.641V149.861V149.361H111.688V149.861ZM119.593 149.861V150.361H123.545V149.861V149.361H119.593V149.861ZM127.498 149.861V150.361H131.45V149.861V149.361H127.498V149.861ZM135.402 149.861V150.361H137.379V149.861V149.361H135.402V149.861ZM137.379 149.861H137.879V147.821H137.379H136.879V149.861H137.379ZM137.379 143.742H137.879V139.662H137.379H136.879V143.742H137.379ZM137.379 135.583H137.879V131.503H137.379H136.879V135.583H137.379ZM137.379 127.424H137.879V123.344H137.379H136.879V127.424H137.379ZM137.379 119.265H137.879V115.185H137.379H136.879V119.265H137.379ZM137.379 111.106H137.879V107.026H137.379H136.879V111.106H137.379ZM137.379 102.947H137.879V98.8675H137.379H136.879V102.947H137.379ZM137.379 94.7881H137.879V90.7086H137.379H136.879V94.7881H137.379ZM137.379 86.6291H137.879V82.5497H137.379H136.879V86.6291H137.379ZM137.379 78.4702H137.879V74.3907H137.379H136.879V78.4702H137.379ZM137.379 70.3113H137.879V66.2318H137.379H136.879V70.3113H137.379ZM137.379 62.1523H137.879V58.0729H137.379H136.879V62.1523H137.379ZM137.379 53.9934H137.879V49.9139H137.379H136.879V53.9934H137.379ZM137.379 45.8345H137.879V41.755H137.379H136.879V45.8345H137.379ZM137.379 37.6755H137.879V33.5961H137.379H136.879V37.6755H137.379ZM137.379 29.5166H137.879V25.4371H137.379H136.879V29.5166H137.379ZM137.379 21.3577H137.879V17.2782H137.379H136.879V21.3577H137.379ZM137.379 13.1987H137.879V9.11924H137.379H136.879V13.1987H137.379ZM137.379 5.03978H137.879V3H137.379H136.879V5.03978H137.379ZM137.379 3V3.5H139.329V3V2.5H137.379V3ZM143.231 3V3.5H147.132V3V2.5H143.231V3ZM151.034 3V3.5H154.935V3V2.5H151.034V3ZM158.837 3V3.5H162.738V3V2.5H158.837V3ZM166.64 3V3.5H170.542V3V2.5H166.64V3ZM174.443 3V3.5H178.345V3V2.5H174.443V3ZM182.246 3V3.5H186.148V3V2.5H182.246V3ZM190.049 3V3.5H192V3V2.5H190.049V3Z" fill="#1D9B5E"/>
</svg>
