<svg width="106" height="219" viewBox="0 0 106 219" fill="none" xmlns="http://www.w3.org/2000/svg">
<path d="M0.333333 3C0.333333 4.47276 1.52724 5.66667 3 5.66667C4.47276 5.66667 5.66667 4.47276 5.66667 3C5.66667 1.52724 4.47276 0.333333 3 0.333333C1.52724 0.333333 0.333333 1.52724 0.333333 3ZM3 216H2.5V216.5H3V216ZM100.333 216C100.333 217.473 101.527 218.667 103 218.667C104.473 218.667 105.667 217.473 105.667 216C105.667 214.527 104.473 213.333 103 213.333C101.527 213.333 100.333 214.527 100.333 216ZM3 3H2.5V4.97222H3H3.5V3H3ZM3 8.91667H2.5V12.8611H3H3.5V8.91667H3ZM3 16.8056H2.5V20.75H3H3.5V16.8056H3ZM3 24.6944H2.5V28.6389H3H3.5V24.6944H3ZM3 32.5833H2.5V36.5278H3H3.5V32.5833H3ZM3 40.4722H2.5V44.4167H3H3.5V40.4722H3ZM3 48.3611H2.5V52.3055H3H3.5V48.3611H3ZM3 56.25H2.5V60.1944H3H3.5V56.25H3ZM3 64.1389H2.5V68.0833H3H3.5V64.1389H3ZM3 72.0278H2.5V75.9722H3H3.5V72.0278H3ZM3 79.9166H2.5V83.8611H3H3.5V79.9166H3ZM3 87.8055H2.5V91.75H3H3.5V87.8055H3ZM3 95.6944H2.5V99.6389H3H3.5V95.6944H3ZM3 103.583H2.5V107.528H3H3.5V103.583H3ZM3 111.472H2.5V115.417H3H3.5V111.472H3ZM3 119.361H2.5V123.306H3H3.5V119.361H3ZM3 127.25H2.5V131.194H3H3.5V127.25H3ZM3 135.139H2.5V139.083H3H3.5V135.139H3ZM3 143.028H2.5V146.972H3H3.5V143.028H3ZM3 150.917H2.5V154.861H3H3.5V150.917H3ZM3 158.806H2.5V162.75H3H3.5V158.806H3ZM3 166.694H2.5V170.639H3H3.5V166.694H3ZM3 174.583H2.5V178.528H3H3.5V174.583H3ZM3 182.472H2.5V186.417H3H3.5V182.472H3ZM3 190.361H2.5V194.305H3H3.5V190.361H3ZM3 198.25H2.5V202.194H3H3.5V198.25H3ZM3 206.139H2.5V210.083H3H3.5V206.139H3ZM3 214.028H2.5V216H3H3.5V214.028H3ZM3 216V216.5H4.92308V216V215.5H3V216ZM8.76923 216V216.5H12.6154V216V215.5H8.76923V216ZM16.4615 216V216.5H20.3077V216V215.5H16.4615V216ZM24.1538 216V216.5H28V216V215.5H24.1538V216ZM31.8462 216V216.5H35.6923V216V215.5H31.8462V216ZM39.5385 216V216.5H43.3846V216V215.5H39.5385V216ZM47.2308 216V216.5H51.0769V216V215.5H47.2308V216ZM54.9231 216V216.5H58.7692V216V215.5H54.9231V216ZM62.6154 216V216.5H66.4615V216V215.5H62.6154V216ZM70.3077 216V216.5H74.1538V216V215.5H70.3077V216ZM78 216V216.5H81.8461V216V215.5H78V216ZM85.6923 216V216.5H89.5385V216V215.5H85.6923V216ZM93.3846 216V216.5H97.2308V216V215.5H93.3846V216ZM101.077 216V216.5H103V216V215.5H101.077V216Z" fill="#1D9B5E"/>
</svg>
